<mxfile host="65bd71144e">
    <diagram id="AWWQNmxJE1MPN5A_QUfB" name="Page-1">
        <mxGraphModel dx="1615" dy="1663" grid="1" gridSize="10" guides="1" tooltips="1" connect="1" arrows="1" fold="1" page="1" pageScale="1" pageWidth="850" pageHeight="1100" background="#ffffff" math="0" shadow="0">
            <root>
                <mxCell id="0"/>
                <mxCell id="1" parent="0"/>
                <UserObject label="" mermaidData="{&#xa;  &quot;data&quot;: &quot;classDiagram\n    %% Interfaces and classes\n    class CoffeeMachineState {\n        &lt;&lt;interface&gt;&gt;\n        +void insertCoin()\n        +void selectCoffee()\n        +void dispenseCoffee()\n    }\n\n    class IdleState {\n        -CoffeeMachine coffeeMachine\n        +IdleState(CoffeeMachine coffeeMachine)\n        +void insertCoin()\n        +void selectCoffee()\n        +void dispenseCoffee()\n    }\n\n    class SelectingState {\n        -CoffeeMachine coffeeMachine\n        +SelectingState(CoffeeMachine coffeeMachine)\n        +void insertCoin()\n        +void selectCoffee()\n        +void dispenseCoffee()\n    }\n\n    class DispensingState {\n        -CoffeeMachine coffeeMachine\n        +DispensingState(CoffeeMachine coffeeMachine)\n        +void insertCoin()\n        +void selectCoffee()\n        +void dispenseCoffee()\n    }\n\n    class CoffeeMachine {\n        -CoffeeMachineState idleState\n        -CoffeeMachineState selectingState\n        -CoffeeMachineState dispensingState\n        -CoffeeMachineState currentState\n\n        +CoffeeMachine()\n        +void setState(CoffeeMachineState state)\n        +CoffeeMachineState getIdleState()\n        +CoffeeMachineState getReadyState()\n        +CoffeeMachineState getDispensingState()\n        +void insertCoin()\n        +void selectCoffee()\n        +void dispenseCoffee()\n    }\n\n    %% Relationships\n    CoffeeMachineState &lt;|.. IdleState : implements\n    CoffeeMachineState &lt;|.. SelectingState : implements\n    CoffeeMachineState &lt;|.. DispensingState : implements\n\n    CoffeeMachine --&gt; IdleState : uses\n    CoffeeMachine --&gt; SelectingState : uses\n    CoffeeMachine --&gt; DispensingState : uses\n\n    IdleState --&gt; CoffeeMachine : \&quot;has reference to\&quot;\n    SelectingState --&gt; CoffeeMachine : \&quot;has reference to\&quot;\n    DispensingState --&gt; CoffeeMachine : \&quot;has reference to\&quot;\n&quot;&#xa;}" id="2">
                    <mxCell style="shape=image;noLabel=1;verticalAlign=top;imageAspect=1;image=data:image/svg+xml,PHN2ZyBhcmlhLXJvbGVkZXNjcmlwdGlvbj0iY2xhc3MiIHJvbGU9ImdyYXBoaWNzLWRvY3VtZW50IGRvY3VtZW50IiB2aWV3Qm94PSIwLjAwMDAxNTI1ODc4OTA2MjUgMCA5MTUuNDExMDEwNzQyMTg3NSAxMjgyLjQwMDAyNDQxNDA2MjUiIHN0eWxlPSJtYXgtd2lkdGg6IDkxNS40MTEwMTA3NDIxODc1cHg7IiBjbGFzcz0iY2xhc3NEaWFncmFtIiB4bWxucz0iaHR0cDovL3d3dy53My5vcmcvMjAwMC9zdmciIHdpZHRoPSIxMDAlIiBpZD0iZ2VNZXJtYWlkT3V0cHV0LTE3NTMwNzYxNTc2NzAiPjxzdHlsZT4jZ2VNZXJtYWlkT3V0cHV0LTE3NTMwNzYxNTc2NzB7Zm9udC1mYW1pbHk6InRyZWJ1Y2hldCBtcyIsdmVyZGFuYSxhcmlhbCxzYW5zLXNlcmlmO2ZvbnQtc2l6ZToxNnB4O2ZpbGw6IzAwMDAwMDt9I2dlTWVybWFpZE91dHB1dC0xNzUzMDc2MTU3NjcwIC5lcnJvci1pY29ue2ZpbGw6IzU1MjIyMjt9I2dlTWVybWFpZE91dHB1dC0xNzUzMDc2MTU3NjcwIC5lcnJvci10ZXh0e2ZpbGw6IzU1MjIyMjtzdHJva2U6IzU1MjIyMjt9I2dlTWVybWFpZE91dHB1dC0xNzUzMDc2MTU3NjcwIC5lZGdlLXRoaWNrbmVzcy1ub3JtYWx7c3Ryb2tlLXdpZHRoOjFweDt9I2dlTWVybWFpZE91dHB1dC0xNzUzMDc2MTU3NjcwIC5lZGdlLXRoaWNrbmVzcy10aGlja3tzdHJva2Utd2lkdGg6My41cHg7fSNnZU1lcm1haWRPdXRwdXQtMTc1MzA3NjE1NzY3MCAuZWRnZS1wYXR0ZXJuLXNvbGlke3N0cm9rZS1kYXNoYXJyYXk6MDt9I2dlTWVybWFpZE91dHB1dC0xNzUzMDc2MTU3NjcwIC5lZGdlLXRoaWNrbmVzcy1pbnZpc2libGV7c3Ryb2tlLXdpZHRoOjA7ZmlsbDpub25lO30jZ2VNZXJtYWlkT3V0cHV0LTE3NTMwNzYxNTc2NzAgLmVkZ2UtcGF0dGVybi1kYXNoZWR7c3Ryb2tlLWRhc2hhcnJheTozO30jZ2VNZXJtYWlkT3V0cHV0LTE3NTMwNzYxNTc2NzAgLmVkZ2UtcGF0dGVybi1kb3R0ZWR7c3Ryb2tlLWRhc2hhcnJheToyO30jZ2VNZXJtYWlkT3V0cHV0LTE3NTMwNzYxNTc2NzAgLm1hcmtlcntmaWxsOiM2NjY7c3Ryb2tlOiM2NjY7fSNnZU1lcm1haWRPdXRwdXQtMTc1MzA3NjE1NzY3MCAubWFya2VyLmNyb3Nze3N0cm9rZTojNjY2O30jZ2VNZXJtYWlkT3V0cHV0LTE3NTMwNzYxNTc2NzAgc3Zne2ZvbnQtZmFtaWx5OiJ0cmVidWNoZXQgbXMiLHZlcmRhbmEsYXJpYWwsc2Fucy1zZXJpZjtmb250LXNpemU6MTZweDt9I2dlTWVybWFpZE91dHB1dC0xNzUzMDc2MTU3NjcwIHB7bWFyZ2luOjA7fSNnZU1lcm1haWRPdXRwdXQtMTc1MzA3NjE1NzY3MCBnLmNsYXNzR3JvdXAgdGV4dHtmaWxsOiM5OTk7c3Ryb2tlOm5vbmU7Zm9udC1mYW1pbHk6InRyZWJ1Y2hldCBtcyIsdmVyZGFuYSxhcmlhbCxzYW5zLXNlcmlmO2ZvbnQtc2l6ZToxMHB4O30jZ2VNZXJtYWlkT3V0cHV0LTE3NTMwNzYxNTc2NzAgZy5jbGFzc0dyb3VwIHRleHQgLnRpdGxle2ZvbnQtd2VpZ2h0OmJvbGRlcjt9I2dlTWVybWFpZE91dHB1dC0xNzUzMDc2MTU3NjcwIC5ub2RlTGFiZWwsI2dlTWVybWFpZE91dHB1dC0xNzUzMDc2MTU3NjcwIC5lZGdlTGFiZWx7Y29sb3I6IzExMTExMTt9I2dlTWVybWFpZE91dHB1dC0xNzUzMDc2MTU3NjcwIC5lZGdlTGFiZWwgLmxhYmVsIHJlY3R7ZmlsbDojZWVlO30jZ2VNZXJtYWlkT3V0cHV0LTE3NTMwNzYxNTc2NzAgLmxhYmVsIHRleHR7ZmlsbDojMTExMTExO30jZ2VNZXJtYWlkT3V0cHV0LTE3NTMwNzYxNTc2NzAgLmxhYmVsQmtne2JhY2tncm91bmQ6I2VlZTt9I2dlTWVybWFpZE91dHB1dC0xNzUzMDc2MTU3NjcwIC5lZGdlTGFiZWwgLmxhYmVsIHNwYW57YmFja2dyb3VuZDojZWVlO30jZ2VNZXJtYWlkT3V0cHV0LTE3NTMwNzYxNTc2NzAgLmNsYXNzVGl0bGV7Zm9udC13ZWlnaHQ6Ym9sZGVyO30jZ2VNZXJtYWlkT3V0cHV0LTE3NTMwNzYxNTc2NzAgLm5vZGUgcmVjdCwjZ2VNZXJtYWlkT3V0cHV0LTE3NTMwNzYxNTc2NzAgLm5vZGUgY2lyY2xlLCNnZU1lcm1haWRPdXRwdXQtMTc1MzA3NjE1NzY3MCAubm9kZSBlbGxpcHNlLCNnZU1lcm1haWRPdXRwdXQtMTc1MzA3NjE1NzY3MCAubm9kZSBwb2x5Z29uLCNnZU1lcm1haWRPdXRwdXQtMTc1MzA3NjE1NzY3MCAubm9kZSBwYXRoe2ZpbGw6I2VlZTtzdHJva2U6Izk5OTtzdHJva2Utd2lkdGg6MXB4O30jZ2VNZXJtYWlkT3V0cHV0LTE3NTMwNzYxNTc2NzAgLmRpdmlkZXJ7c3Ryb2tlOiM5OTk7c3Ryb2tlLXdpZHRoOjE7fSNnZU1lcm1haWRPdXRwdXQtMTc1MzA3NjE1NzY3MCBnLmNsaWNrYWJsZXtjdXJzb3I6cG9pbnRlcjt9I2dlTWVybWFpZE91dHB1dC0xNzUzMDc2MTU3NjcwIGcuY2xhc3NHcm91cCByZWN0e2ZpbGw6I2VlZTtzdHJva2U6Izk5OTt9I2dlTWVybWFpZE91dHB1dC0xNzUzMDc2MTU3NjcwIGcuY2xhc3NHcm91cCBsaW5le3N0cm9rZTojOTk5O3N0cm9rZS13aWR0aDoxO30jZ2VNZXJtYWlkT3V0cHV0LTE3NTMwNzYxNTc2NzAgLmNsYXNzTGFiZWwgLmJveHtzdHJva2U6bm9uZTtzdHJva2Utd2lkdGg6MDtmaWxsOiNlZWU7b3BhY2l0eTowLjU7fSNnZU1lcm1haWRPdXRwdXQtMTc1MzA3NjE1NzY3MCAuY2xhc3NMYWJlbCAubGFiZWx7ZmlsbDojOTk5O2ZvbnQtc2l6ZToxMHB4O30jZ2VNZXJtYWlkT3V0cHV0LTE3NTMwNzYxNTc2NzAgLnJlbGF0aW9ue3N0cm9rZTojNjY2O3N0cm9rZS13aWR0aDoxO2ZpbGw6bm9uZTt9I2dlTWVybWFpZE91dHB1dC0xNzUzMDc2MTU3NjcwIC5kYXNoZWQtbGluZXtzdHJva2UtZGFzaGFycmF5OjM7fSNnZU1lcm1haWRPdXRwdXQtMTc1MzA3NjE1NzY3MCAuZG90dGVkLWxpbmV7c3Ryb2tlLWRhc2hhcnJheToxIDI7fSNnZU1lcm1haWRPdXRwdXQtMTc1MzA3NjE1NzY3MCAjY29tcG9zaXRpb25TdGFydCwjZ2VNZXJtYWlkT3V0cHV0LTE3NTMwNzYxNTc2NzAgLmNvbXBvc2l0aW9ue2ZpbGw6IzY2NiFpbXBvcnRhbnQ7c3Ryb2tlOiM2NjYhaW1wb3J0YW50O3N0cm9rZS13aWR0aDoxO30jZ2VNZXJtYWlkT3V0cHV0LTE3NTMwNzYxNTc2NzAgI2NvbXBvc2l0aW9uRW5kLCNnZU1lcm1haWRPdXRwdXQtMTc1MzA3NjE1NzY3MCAuY29tcG9zaXRpb257ZmlsbDojNjY2IWltcG9ydGFudDtzdHJva2U6IzY2NiFpbXBvcnRhbnQ7c3Ryb2tlLXdpZHRoOjE7fSNnZU1lcm1haWRPdXRwdXQtMTc1MzA3NjE1NzY3MCAjZGVwZW5kZW5jeVN0YXJ0LCNnZU1lcm1haWRPdXRwdXQtMTc1MzA3NjE1NzY3MCAuZGVwZW5kZW5jeXtmaWxsOiM2NjYhaW1wb3J0YW50O3N0cm9rZTojNjY2IWltcG9ydGFudDtzdHJva2Utd2lkdGg6MTt9I2dlTWVybWFpZE91dHB1dC0xNzUzMDc2MTU3NjcwICNkZXBlbmRlbmN5U3RhcnQsI2dlTWVybWFpZE91dHB1dC0xNzUzMDc2MTU3NjcwIC5kZXBlbmRlbmN5e2ZpbGw6IzY2NiFpbXBvcnRhbnQ7c3Ryb2tlOiM2NjYhaW1wb3J0YW50O3N0cm9rZS13aWR0aDoxO30jZ2VNZXJtYWlkT3V0cHV0LTE3NTMwNzYxNTc2NzAgI2V4dGVuc2lvblN0YXJ0LCNnZU1lcm1haWRPdXRwdXQtMTc1MzA3NjE1NzY3MCAuZXh0ZW5zaW9ue2ZpbGw6dHJhbnNwYXJlbnQhaW1wb3J0YW50O3N0cm9rZTojNjY2IWltcG9ydGFudDtzdHJva2Utd2lkdGg6MTt9I2dlTWVybWFpZE91dHB1dC0xNzUzMDc2MTU3NjcwICNleHRlbnNpb25FbmQsI2dlTWVybWFpZE91dHB1dC0xNzUzMDc2MTU3NjcwIC5leHRlbnNpb257ZmlsbDp0cmFuc3BhcmVudCFpbXBvcnRhbnQ7c3Ryb2tlOiM2NjYhaW1wb3J0YW50O3N0cm9rZS13aWR0aDoxO30jZ2VNZXJtYWlkT3V0cHV0LTE3NTMwNzYxNTc2NzAgI2FnZ3JlZ2F0aW9uU3RhcnQsI2dlTWVybWFpZE91dHB1dC0xNzUzMDc2MTU3NjcwIC5hZ2dyZWdhdGlvbntmaWxsOnRyYW5zcGFyZW50IWltcG9ydGFudDtzdHJva2U6IzY2NiFpbXBvcnRhbnQ7c3Ryb2tlLXdpZHRoOjE7fSNnZU1lcm1haWRPdXRwdXQtMTc1MzA3NjE1NzY3MCAjYWdncmVnYXRpb25FbmQsI2dlTWVybWFpZE91dHB1dC0xNzUzMDc2MTU3NjcwIC5hZ2dyZWdhdGlvbntmaWxsOnRyYW5zcGFyZW50IWltcG9ydGFudDtzdHJva2U6IzY2NiFpbXBvcnRhbnQ7c3Ryb2tlLXdpZHRoOjE7fSNnZU1lcm1haWRPdXRwdXQtMTc1MzA3NjE1NzY3MCAjbG9sbGlwb3BTdGFydCwjZ2VNZXJtYWlkT3V0cHV0LTE3NTMwNzYxNTc2NzAgLmxvbGxpcG9we2ZpbGw6I2VlZSFpbXBvcnRhbnQ7c3Ryb2tlOiM2NjYhaW1wb3J0YW50O3N0cm9rZS13aWR0aDoxO30jZ2VNZXJtYWlkT3V0cHV0LTE3NTMwNzYxNTc2NzAgI2xvbGxpcG9wRW5kLCNnZU1lcm1haWRPdXRwdXQtMTc1MzA3NjE1NzY3MCAubG9sbGlwb3B7ZmlsbDojZWVlIWltcG9ydGFudDtzdHJva2U6IzY2NiFpbXBvcnRhbnQ7c3Ryb2tlLXdpZHRoOjE7fSNnZU1lcm1haWRPdXRwdXQtMTc1MzA3NjE1NzY3MCAuZWRnZVRlcm1pbmFsc3tmb250LXNpemU6MTFweDtsaW5lLWhlaWdodDppbml0aWFsO30jZ2VNZXJtYWlkT3V0cHV0LTE3NTMwNzYxNTc2NzAgLmNsYXNzVGl0bGVUZXh0e3RleHQtYW5jaG9yOm1pZGRsZTtmb250LXNpemU6MThweDtmaWxsOiMwMDAwMDA7fSNnZU1lcm1haWRPdXRwdXQtMTc1MzA3NjE1NzY3MCA6cm9vdHstLW1lcm1haWQtZm9udC1mYW1pbHk6InRyZWJ1Y2hldCBtcyIsdmVyZGFuYSxhcmlhbCxzYW5zLXNlcmlmO308L3N0eWxlPjxnPjxkZWZzPjxtYXJrZXIgb3JpZW50PSJhdXRvIiBtYXJrZXJIZWlnaHQ9IjI0MCIgbWFya2VyV2lkdGg9IjE5MCIgcmVmWT0iNyIgcmVmWD0iMTgiIGNsYXNzPSJtYXJrZXIgYWdncmVnYXRpb24gY2xhc3MiIGlkPSJnZU1lcm1haWRPdXRwdXQtMTc1MzA3NjE1NzY3MF9jbGFzcy1hZ2dyZWdhdGlvblN0YXJ0Ij48cGF0aCBkPSJNIDE4LDcgTDksMTMgTDEsNyBMOSwxIFoiPjwvcGF0aD48L21hcmtlcj48L2RlZnM+PGRlZnM+PG1hcmtlciBvcmllbnQ9ImF1dG8iIG1hcmtlckhlaWdodD0iMjgiIG1hcmtlcldpZHRoPSIyMCIgcmVmWT0iNyIgcmVmWD0iMSIgY2xhc3M9Im1hcmtlciBhZ2dyZWdhdGlvbiBjbGFzcyIgaWQ9ImdlTWVybWFpZE91dHB1dC0xNzUzMDc2MTU3NjcwX2NsYXNzLWFnZ3JlZ2F0aW9uRW5kIj48cGF0aCBkPSJNIDE4LDcgTDksMTMgTDEsNyBMOSwxIFoiPjwvcGF0aD48L21hcmtlcj48L2RlZnM+PGRlZnM+PG1hcmtlciBvcmllbnQ9ImF1dG8iIG1hcmtlckhlaWdodD0iMjQwIiBtYXJrZXJXaWR0aD0iMTkwIiByZWZZPSI3IiByZWZYPSIxOCIgY2xhc3M9Im1hcmtlciBleHRlbnNpb24gY2xhc3MiIGlkPSJnZU1lcm1haWRPdXRwdXQtMTc1MzA3NjE1NzY3MF9jbGFzcy1leHRlbnNpb25TdGFydCI+PHBhdGggZD0iTSAxLDcgTDE4LDEzIFYgMSBaIj48L3BhdGg+PC9tYXJrZXI+PC9kZWZzPjxkZWZzPjxtYXJrZXIgb3JpZW50PSJhdXRvIiBtYXJrZXJIZWlnaHQ9IjI4IiBtYXJrZXJXaWR0aD0iMjAiIHJlZlk9IjciIHJlZlg9IjEiIGNsYXNzPSJtYXJrZXIgZXh0ZW5zaW9uIGNsYXNzIiBpZD0iZ2VNZXJtYWlkT3V0cHV0LTE3NTMwNzYxNTc2NzBfY2xhc3MtZXh0ZW5zaW9uRW5kIj48cGF0aCBkPSJNIDEsMSBWIDEzIEwxOCw3IFoiPjwvcGF0aD48L21hcmtlcj48L2RlZnM+PGRlZnM+PG1hcmtlciBvcmllbnQ9ImF1dG8iIG1hcmtlckhlaWdodD0iMjQwIiBtYXJrZXJXaWR0aD0iMTkwIiByZWZZPSI3IiByZWZYPSIxOCIgY2xhc3M9Im1hcmtlciBjb21wb3NpdGlvbiBjbGFzcyIgaWQ9ImdlTWVybWFpZE91dHB1dC0xNzUzMDc2MTU3NjcwX2NsYXNzLWNvbXBvc2l0aW9uU3RhcnQiPjxwYXRoIGQ9Ik0gMTgsNyBMOSwxMyBMMSw3IEw5LDEgWiI+PC9wYXRoPjwvbWFya2VyPjwvZGVmcz48ZGVmcz48bWFya2VyIG9yaWVudD0iYXV0byIgbWFya2VySGVpZ2h0PSIyOCIgbWFya2VyV2lkdGg9IjIwIiByZWZZPSI3IiByZWZYPSIxIiBjbGFzcz0ibWFya2VyIGNvbXBvc2l0aW9uIGNsYXNzIiBpZD0iZ2VNZXJtYWlkT3V0cHV0LTE3NTMwNzYxNTc2NzBfY2xhc3MtY29tcG9zaXRpb25FbmQiPjxwYXRoIGQ9Ik0gMTgsNyBMOSwxMyBMMSw3IEw5LDEgWiI+PC9wYXRoPjwvbWFya2VyPjwvZGVmcz48ZGVmcz48bWFya2VyIG9yaWVudD0iYXV0byIgbWFya2VySGVpZ2h0PSIyNDAiIG1hcmtlcldpZHRoPSIxOTAiIHJlZlk9IjciIHJlZlg9IjYiIGNsYXNzPSJtYXJrZXIgZGVwZW5kZW5jeSBjbGFzcyIgaWQ9ImdlTWVybWFpZE91dHB1dC0xNzUzMDc2MTU3NjcwX2NsYXNzLWRlcGVuZGVuY3lTdGFydCI+PHBhdGggZD0iTSA1LDcgTDksMTMgTDEsNyBMOSwxIFoiPjwvcGF0aD48L21hcmtlcj48L2RlZnM+PGRlZnM+PG1hcmtlciBvcmllbnQ9ImF1dG8iIG1hcmtlckhlaWdodD0iMjgiIG1hcmtlcldpZHRoPSIyMCIgcmVmWT0iNyIgcmVmWD0iMTMiIGNsYXNzPSJtYXJrZXIgZGVwZW5kZW5jeSBjbGFzcyIgaWQ9ImdlTWVybWFpZE91dHB1dC0xNzUzMDc2MTU3NjcwX2NsYXNzLWRlcGVuZGVuY3lFbmQiPjxwYXRoIGQ9Ik0gMTgsNyBMOSwxMyBMMTQsNyBMOSwxIFoiPjwvcGF0aD48L21hcmtlcj48L2RlZnM+PGRlZnM+PG1hcmtlciBvcmllbnQ9ImF1dG8iIG1hcmtlckhlaWdodD0iMjQwIiBtYXJrZXJXaWR0aD0iMTkwIiByZWZZPSI3IiByZWZYPSIxMyIgY2xhc3M9Im1hcmtlciBsb2xsaXBvcCBjbGFzcyIgaWQ9ImdlTWVybWFpZE91dHB1dC0xNzUzMDc2MTU3NjcwX2NsYXNzLWxvbGxpcG9wU3RhcnQiPjxjaXJjbGUgcj0iNiIgY3k9IjciIGN4PSI3IiBmaWxsPSJ0cmFuc3BhcmVudCIgc3Ryb2tlPSJibGFjayI+PC9jaXJjbGU+PC9tYXJrZXI+PC9kZWZzPjxkZWZzPjxtYXJrZXIgb3JpZW50PSJhdXRvIiBtYXJrZXJIZWlnaHQ9IjI0MCIgbWFya2VyV2lkdGg9IjE5MCIgcmVmWT0iNyIgcmVmWD0iMSIgY2xhc3M9Im1hcmtlciBsb2xsaXBvcCBjbGFzcyIgaWQ9ImdlTWVybWFpZE91dHB1dC0xNzUzMDc2MTU3NjcwX2NsYXNzLWxvbGxpcG9wRW5kIj48Y2lyY2xlIHI9IjYiIGN5PSI3IiBjeD0iNyIgZmlsbD0idHJhbnNwYXJlbnQiIHN0cm9rZT0iYmxhY2siPjwvY2lyY2xlPjwvbWFya2VyPjwvZGVmcz48ZyBjbGFzcz0icm9vdCI+PGcgY2xhc3M9ImNsdXN0ZXJzIj48L2c+PGcgY2xhc3M9ImVkZ2VQYXRocyI+PHBhdGggbWFya2VyLXN0YXJ0PSJ1cmwoI2dlTWVybWFpZE91dHB1dC0xNzUzMDc2MTU3NjcwX2NsYXNzLWV4dGVuc2lvblN0YXJ0KSIgc3R5bGU9IjsiIGNsYXNzPSJlZGdlLXRoaWNrbmVzcy1ub3JtYWwgZWRnZS1wYXR0ZXJuLWRhc2hlZCByZWxhdGlvbiIgaWQ9ImlkX0NvZmZlZU1hY2hpbmVTdGF0ZV9JZGxlU3RhdGVfMSIgZD0iTTM1MC4wMDgsMjIzLjQzOUwzNTAuODA4LDIyNi41NjZDMzUxLjYwNywyMjkuNjkzLDM1My4yMDUsMjM1Ljk0NiwzNTQuMDA1LDI0NS4xMDdDMzU0LjgwNCwyNTQuMjY3LDM1NC44MDQsMjY2LjMzMywzNTQuODA0LDI3Mi4zNjdMMzU0LjgwNCwyNzguNCI+PC9wYXRoPjxwYXRoIG1hcmtlci1zdGFydD0idXJsKCNnZU1lcm1haWRPdXRwdXQtMTc1MzA3NjE1NzY3MF9jbGFzcy1leHRlbnNpb25TdGFydCkiIHN0eWxlPSI7IiBjbGFzcz0iZWRnZS10aGlja25lc3Mtbm9ybWFsIGVkZ2UtcGF0dGVybi1kYXNoZWQgcmVsYXRpb24iIGlkPSJpZF9Db2ZmZWVNYWNoaW5lU3RhdGVfU2VsZWN0aW5nU3RhdGVfMiIgZD0iTTE3NC4wNzEsMjA0Ljg3NUwxNjQuNzgxLDIxMS4wOTZDMTU1LjQ5MSwyMTcuMzE3LDEzNi45MSwyMjkuNzU4LDEyNy42MTksMjYwLjAxM0MxMTguMzI5LDI5MC4yNjcsMTE4LjMyOSwzMzguMzMzLDExOC4zMjksMzg3Ljg2N0MxMTguMzI5LDQzNy40LDExOC4zMjksNDg4LjQsMTE4LjMyOSw1NTMuNEMxMTguMzI5LDYxOC40LDExOC4zMjksNjk3LjQsMTE4LjMyOSw3NzYuNEMxMTguMzI5LDg1NS40LDExOC4zMjksOTM0LjQsMTIzLjEwMiw5ODEuNEMxMjcuODc2LDEwMjguNCwxMzcuNDIzLDEwNDMuNCwxNDIuMTk3LDEwNTAuOUwxNDYuOTcsMTA1OC40Ij48L3BhdGg+PHBhdGggbWFya2VyLXN0YXJ0PSJ1cmwoI2dlTWVybWFpZE91dHB1dC0xNzUzMDc2MTU3NjcwX2NsYXNzLWV4dGVuc2lvblN0YXJ0KSIgc3R5bGU9IjsiIGNsYXNzPSJlZGdlLXRoaWNrbmVzcy1ub3JtYWwgZWRnZS1wYXR0ZXJuLWRhc2hlZCByZWxhdGlvbiIgaWQ9ImlkX0NvZmZlZU1hY2hpbmVTdGF0ZV9EaXNwZW5zaW5nU3RhdGVfMyIgZD0iTTQ2Ny42MDgsMTc5LjU2OUw0ODguODA1LDE5MC4wMDhDNTEwLjAwMiwyMDAuNDQ2LDU1Mi4zOTYsMjIxLjMyMyw1NzMuNTkzLDI1NS43OTVDNTk0Ljc5LDI5MC4yNjcsNTk0Ljc5LDMzOC4zMzMsNTk0Ljc5LDM4Ny44NjdDNTk0Ljc5LDQzNy40LDU5NC43OSw0ODguNCw1OTQuNzksNTUzLjRDNTk0Ljc5LDYxOC40LDU5NC43OSw2OTcuNCw1OTQuNzksNzc2LjRDNTk0Ljc5LDg1NS40LDU5NC43OSw5MzQuNCw1OTkuNTYzLDk4MS40QzYwNC4zMzcsMTAyOC40LDYxMy44ODQsMTA0My40LDYxOC42NTgsMTA1MC45TDYyMy40MzEsMTA1OC40Ij48L3BhdGg+PHBhdGggbWFya2VyLWVuZD0idXJsKCNnZU1lcm1haWRPdXRwdXQtMTc1MzA3NjE1NzY3MF9jbGFzcy1kZXBlbmRlbmN5RW5kKSIgc3R5bGU9IjsiIGNsYXNzPSJlZGdlLXRoaWNrbmVzcy1ub3JtYWwgZWRnZS1wYXR0ZXJuLXNvbGlkIHJlbGF0aW9uIiBpZD0iaWRfQ29mZmVlTWFjaGluZV9JZGxlU3RhdGVfNCIgZD0iTTQyNC41NTcsNTg0LjRMNDI3LjI4Miw1NzYuOUM0MzAuMDA3LDU2OS40LDQzNS40NTYsNTU0LjQsNDM0LjQ1LDU0MC4yNzFDNDMzLjQ0NSw1MjYuMTQzLDQyNS45ODUsNTEyLjg4Niw0MjIuMjU0LDUwNi4yNTdMNDE4LjUyNCw0OTkuNjI5Ij48L3BhdGg+PHBhdGggbWFya2VyLWVuZD0idXJsKCNnZU1lcm1haWRPdXRwdXQtMTc1MzA3NjE1NzY3MF9jbGFzcy1kZXBlbmRlbmN5RW5kKSIgc3R5bGU9IjsiIGNsYXNzPSJlZGdlLXRoaWNrbmVzcy1ub3JtYWwgZWRnZS1wYXR0ZXJuLXNvbGlkIHJlbGF0aW9uIiBpZD0iaWRfQ29mZmVlTWFjaGluZV9TZWxlY3RpbmdTdGF0ZV81IiBkPSJNMjMyLjE2Myw5NjguNEwyMjcuMzcyLDk3NS45QzIyMi41ODEsOTgzLjQsMjEzLDk5OC40LDIwOC43MzIsMTAxMi40MDNDMjA0LjQ2NCwxMDI2LjQwNiwyMDUuNTA4LDEwMzkuNDEzLDIwNi4wMzEsMTA0NS45MTZMMjA2LjU1MywxMDUyLjQxOSI+PC9wYXRoPjxwYXRoIG1hcmtlci1lbmQ9InVybCgjZ2VNZXJtYWlkT3V0cHV0LTE3NTMwNzYxNTc2NzBfY2xhc3MtZGVwZW5kZW5jeUVuZCkiIHN0eWxlPSI7IiBjbGFzcz0iZWRnZS10aGlja25lc3Mtbm9ybWFsIGVkZ2UtcGF0dGVybi1zb2xpZCByZWxhdGlvbiIgaWQ9ImlkX0NvZmZlZU1hY2hpbmVfRGlzcGVuc2luZ1N0YXRlXzYiIGQ9Ik01NDYuNDczLDk0MC4yNzRMNTYwLjcyOCw5NTIuNDYxQzU3NC45ODMsOTY0LjY0OSw2MDMuNDkyLDk4OS4wMjUsNjIwLjMzMSwxMDA3Ljc4MkM2MzcuMTY5LDEwMjYuNTM5LDY0Mi4zMzYsMTAzOS42NzcsNjQ0LjkyLDEwNDYuMjQ3TDY0Ny41MDMsMTA1Mi44MTYiPjwvcGF0aD48cGF0aCBtYXJrZXItZW5kPSJ1cmwoI2dlTWVybWFpZE91dHB1dC0xNzUzMDc2MTU3NjcwX2NsYXNzLWRlcGVuZGVuY3lFbmQpIiBzdHlsZT0iOyIgY2xhc3M9ImVkZ2UtdGhpY2tuZXNzLW5vcm1hbCBlZGdlLXBhdHRlcm4tc29saWQgcmVsYXRpb24iIGlkPSJpZF9JZGxlU3RhdGVfQ29mZmVlTWFjaGluZV83IiBkPSJNMzE3LjI4OSw0OTQuNEwzMTQuNjg0LDUwMS45QzMxMi4wNzksNTA5LjQsMzA2Ljg2OCw1MjQuNCwzMDUuNzI2LDUzOC40MjRDMzA0LjU4NCw1NTIuNDQ4LDMwNy41MSw1NjUuNDk3LDMwOC45NzMsNTcyLjAyMUwzMTAuNDM2LDU3OC41NDUiPjwvcGF0aD48cGF0aCBtYXJrZXItZW5kPSJ1cmwoI2dlTWVybWFpZE91dHB1dC0xNzUzMDc2MTU3NjcwX2NsYXNzLWRlcGVuZGVuY3lFbmQpIiBzdHlsZT0iOyIgY2xhc3M9ImVkZ2UtdGhpY2tuZXNzLW5vcm1hbCBlZGdlLXBhdHRlcm4tc29saWQgcmVsYXRpb24iIGlkPSJpZF9TZWxlY3RpbmdTdGF0ZV9Db2ZmZWVNYWNoaW5lXzgiIGQ9Ik0zMjMuMjk0LDEwNTguNEwzMzAuNzY1LDEwNTAuOUMzMzguMjM2LDEwNDMuNCwzNTMuMTc5LDEwMjguNCwzNjAuMjg1LDEwMTQuMzk4QzM2Ny4zOSwxMDAwLjM5NywzNjYuNjYsOTg3LjM5NCwzNjYuMjk0LDk4MC44OTJMMzY1LjkyOSw5NzQuMzkxIj48L3BhdGg+PHBhdGggbWFya2VyLWVuZD0idXJsKCNnZU1lcm1haWRPdXRwdXQtMTc1MzA3NjE1NzY3MF9jbGFzcy1kZXBlbmRlbmN5RW5kKSIgc3R5bGU9IjsiIGNsYXNzPSJlZGdlLXRoaWNrbmVzcy1ub3JtYWwgZWRnZS1wYXR0ZXJuLXNvbGlkIHJlbGF0aW9uIiBpZD0iaWRfRGlzcGVuc2luZ1N0YXRlX0NvZmZlZU1hY2hpbmVfOSIgZD0iTTczMi4xNjMsMTA1OC40TDczNC45NDEsMTA1MC45QzczNy43MTgsMTA0My40LDc0My4yNzMsMTAyOC40LDcxMy4xODEsMTAwMS4xM0M2ODMuMDksOTczLjg2LDYxNy4zNTIsOTM0LjMxOSw1ODQuNDgzLDkxNC41NDlMNTUxLjYxNCw4OTQuNzc5Ij48L3BhdGg+PC9nPjxnIGNsYXNzPSJlZGdlTGFiZWxzIj48ZyB0cmFuc2Zvcm09InRyYW5zbGF0ZSgzNTQuODAzODk1OTUwMzE3NCwgMjQyLjE5OTk5OTgwOTI2NTE0KSIgY2xhc3M9ImVkZ2VMYWJlbCI+PGcgdHJhbnNmb3JtPSJ0cmFuc2xhdGUoLTQzLjg4NzUwMDc2MjkzOTQ1LCAtMTEuMTk5OTk5ODA5MjY1MTM3KSIgY2xhc3M9ImxhYmVsIj48Zz48cmVjdCBoZWlnaHQ9IjIyLjM5OTk5OTYxODUzMDI3MyIgd2lkdGg9Ijg3Ljc3NTAwMTUyNTg3ODkiIHk9Ii0xLjE5OTk5OTk4ODA3OTA3MSIgeD0iLTIiIHN0eWxlPSI7ZGlzcGxheTogaW5saW5lLWJsb2NrIiBjbGFzcz0iYmFja2dyb3VuZCI+PC9yZWN0Pjx0ZXh0IHN0eWxlPSI7ZGlzcGxheTogaW5saW5lLWJsb2NrIiB5PSItMTAuMSI+PHRzcGFuIGR5PSIxLjFlbSIgeT0iLTAuMWVtIiB4PSIwIiBjbGFzcz0idGV4dC1vdXRlci10c3BhbiI+PHRzcGFuIGZvbnQtd2VpZ2h0PSJub3JtYWwiIGNsYXNzPSJ0ZXh0LWlubmVyLXRzcGFuIiBmb250LXN0eWxlPSJub3JtYWwiPmltcGxlbWVudHM8L3RzcGFuPjwvdHNwYW4+PC90ZXh0PjwvZz48L2c+PC9nPjxnIHRyYW5zZm9ybT0idHJhbnNsYXRlKDExOC4zMjg4OTc0NzYxOTYyOSwgNTM5LjM5OTk5OTYxODUzMDMpIiBjbGFzcz0iZWRnZUxhYmVsIj48ZyB0cmFuc2Zvcm09InRyYW5zbGF0ZSgtNDMuODg3NTAwNzYyOTM5NDUsIC0xMS4xOTk5OTk4MDkyNjUxMzcpIiBjbGFzcz0ibGFiZWwiPjxnPjxyZWN0IGhlaWdodD0iMjIuMzk5OTk5NjE4NTMwMjczIiB3aWR0aD0iODcuNzc1MDAxNTI1ODc4OSIgeT0iLTEuMTk5OTk5OTg4MDc5MDcxIiB4PSItMiIgc3R5bGU9IjtkaXNwbGF5OiBpbmxpbmUtYmxvY2siIGNsYXNzPSJiYWNrZ3JvdW5kIj48L3JlY3Q+PHRleHQgc3R5bGU9IjtkaXNwbGF5OiBpbmxpbmUtYmxvY2siIHk9Ii0xMC4xIj48dHNwYW4gZHk9IjEuMWVtIiB5PSItMC4xZW0iIHg9IjAiIGNsYXNzPSJ0ZXh0LW91dGVyLXRzcGFuIj48dHNwYW4gZm9udC13ZWlnaHQ9Im5vcm1hbCIgY2xhc3M9InRleHQtaW5uZXItdHNwYW4iIGZvbnQtc3R5bGU9Im5vcm1hbCI+aW1wbGVtZW50czwvdHNwYW4+PC90c3Bhbj48L3RleHQ+PC9nPjwvZz48L2c+PGcgdHJhbnNmb3JtPSJ0cmFuc2xhdGUoNTk0Ljc4OTgzMjExNTE3MzMsIDUzOS4zOTk5OTk2MTg1MzAzKSIgY2xhc3M9ImVkZ2VMYWJlbCI+PGcgdHJhbnNmb3JtPSJ0cmFuc2xhdGUoLTQzLjg4NzUwMDc2MjkzOTQ1LCAtMTEuMTk5OTk5ODA5MjY1MTM3KSIgY2xhc3M9ImxhYmVsIj48Zz48cmVjdCBoZWlnaHQ9IjIyLjM5OTk5OTYxODUzMDI3MyIgd2lkdGg9Ijg3Ljc3NTAwMTUyNTg3ODkiIHk9Ii0xLjE5OTk5OTk4ODA3OTA3MSIgeD0iLTIiIHN0eWxlPSI7ZGlzcGxheTogaW5saW5lLWJsb2NrIiBjbGFzcz0iYmFja2dyb3VuZCI+PC9yZWN0Pjx0ZXh0IHN0eWxlPSI7ZGlzcGxheTogaW5saW5lLWJsb2NrIiB5PSItMTAuMSI+PHRzcGFuIGR5PSIxLjFlbSIgeT0iLTAuMWVtIiB4PSIwIiBjbGFzcz0idGV4dC1vdXRlci10c3BhbiI+PHRzcGFuIGZvbnQtd2VpZ2h0PSJub3JtYWwiIGNsYXNzPSJ0ZXh0LWlubmVyLXRzcGFuIiBmb250LXN0eWxlPSJub3JtYWwiPmltcGxlbWVudHM8L3RzcGFuPjwvdHNwYW4+PC90ZXh0PjwvZz48L2c+PC9nPjxnIHRyYW5zZm9ybT0idHJhbnNsYXRlKDQ0MC45MDU0NTg0NTAzMTc0LCA1MzkuMzk5OTk5NjE4NTMwMykiIGNsYXNzPSJlZGdlTGFiZWwiPjxnIHRyYW5zZm9ybT0idHJhbnNsYXRlKC0xNy4yMTI0OTk2MTg1MzAyNzMsIC0xMS4xOTk5OTk4MDkyNjUxMzcpIiBjbGFzcz0ibGFiZWwiPjxnPjxyZWN0IGhlaWdodD0iMjIuMzk5OTk5NjE4NTMwMjczIiB3aWR0aD0iMzQuNDI1MDAxMTQ0NDA5MTgiIHk9Ii0xLjE5OTk5OTk4ODA3OTA3MSIgeD0iLTIiIHN0eWxlPSI7ZGlzcGxheTogaW5saW5lLWJsb2NrIiBjbGFzcz0iYmFja2dyb3VuZCI+PC9yZWN0Pjx0ZXh0IHN0eWxlPSI7ZGlzcGxheTogaW5saW5lLWJsb2NrIiB5PSItMTAuMSI+PHRzcGFuIGR5PSIxLjFlbSIgeT0iLTAuMWVtIiB4PSIwIiBjbGFzcz0idGV4dC1vdXRlci10c3BhbiI+PHRzcGFuIGZvbnQtd2VpZ2h0PSJub3JtYWwiIGNsYXNzPSJ0ZXh0LWlubmVyLXRzcGFuIiBmb250LXN0eWxlPSJub3JtYWwiPnVzZXM8L3RzcGFuPjwvdHNwYW4+PC90ZXh0PjwvZz48L2c+PC9nPjxnIHRyYW5zZm9ybT0idHJhbnNsYXRlKDIwMy40MTg3NDEyMjYxOTYzLCAxMDEzLjM5OTk5OTYxODUzMDMpIiBjbGFzcz0iZWRnZUxhYmVsIj48ZyB0cmFuc2Zvcm09InRyYW5zbGF0ZSgtMTcuMjEyNDk5NjE4NTMwMjczLCAtMTEuMTk5OTk5ODA5MjY1MTM3KSIgY2xhc3M9ImxhYmVsIj48Zz48cmVjdCBoZWlnaHQ9IjIyLjM5OTk5OTYxODUzMDI3MyIgd2lkdGg9IjM0LjQyNTAwMTE0NDQwOTE4IiB5PSItMS4xOTk5OTk5ODgwNzkwNzEiIHg9Ii0yIiBzdHlsZT0iO2Rpc3BsYXk6IGlubGluZS1ibG9jayIgY2xhc3M9ImJhY2tncm91bmQiPjwvcmVjdD48dGV4dCBzdHlsZT0iO2Rpc3BsYXk6IGlubGluZS1ibG9jayIgeT0iLTEwLjEiPjx0c3BhbiBkeT0iMS4xZW0iIHk9Ii0wLjFlbSIgeD0iMCIgY2xhc3M9InRleHQtb3V0ZXItdHNwYW4iPjx0c3BhbiBmb250LXdlaWdodD0ibm9ybWFsIiBjbGFzcz0idGV4dC1pbm5lci10c3BhbiIgZm9udC1zdHlsZT0ibm9ybWFsIj51c2VzPC90c3Bhbj48L3RzcGFuPjwvdGV4dD48L2c+PC9nPjwvZz48ZyB0cmFuc2Zvcm09InRyYW5zbGF0ZSg2MzIuMDAyMzMxNzMzNzAzNiwgMTAxMy4zOTk5OTk2MTg1MzAzKSIgY2xhc3M9ImVkZ2VMYWJlbCI+PGcgdHJhbnNmb3JtPSJ0cmFuc2xhdGUoLTE3LjIxMjQ5OTYxODUzMDI3MywgLTExLjE5OTk5OTgwOTI2NTEzNykiIGNsYXNzPSJsYWJlbCI+PGc+PHJlY3QgaGVpZ2h0PSIyMi4zOTk5OTk2MTg1MzAyNzMiIHdpZHRoPSIzNC40MjUwMDExNDQ0MDkxOCIgeT0iLTEuMTk5OTk5OTg4MDc5MDcxIiB4PSItMiIgc3R5bGU9IjtkaXNwbGF5OiBpbmxpbmUtYmxvY2siIGNsYXNzPSJiYWNrZ3JvdW5kIj48L3JlY3Q+PHRleHQgc3R5bGU9IjtkaXNwbGF5OiBpbmxpbmUtYmxvY2siIHk9Ii0xMC4xIj48dHNwYW4gZHk9IjEuMWVtIiB5PSItMC4xZW0iIHg9IjAiIGNsYXNzPSJ0ZXh0LW91dGVyLXRzcGFuIj48dHNwYW4gZm9udC13ZWlnaHQ9Im5vcm1hbCIgY2xhc3M9InRleHQtaW5uZXItdHNwYW4iIGZvbnQtc3R5bGU9Im5vcm1hbCI+dXNlczwvdHNwYW4+PC90c3Bhbj48L3RleHQ+PC9nPjwvZz48L2c+PGcgdHJhbnNmb3JtPSJ0cmFuc2xhdGUoMzAxLjY1NzgwMjU4MTc4NzEsIDUzOS4zOTk5OTk2MTg1MzAzKSIgY2xhc3M9ImVkZ2VMYWJlbCI+PGcgdHJhbnNmb3JtPSJ0cmFuc2xhdGUoLTc2LjEwMTU2MjUsIC0yMCkiIGNsYXNzPSJsYWJlbCI+PGc+PHJlY3QgaGVpZ2h0PSI0MCIgd2lkdGg9IjE1Mi4yMDMxMjUiIHk9Ii0xLjE5OTk5OTk4ODA3OTA3MSIgeD0iLTIiIHN0eWxlPSI7ZGlzcGxheTogaW5saW5lLWJsb2NrIiBjbGFzcz0iYmFja2dyb3VuZCI+PC9yZWN0Pjx0ZXh0IHN0eWxlPSI7ZGlzcGxheTogaW5saW5lLWJsb2NrIiB5PSItMTAuMSI+PHRzcGFuIGR5PSIxLjFlbSIgeT0iLTAuMWVtIiB4PSIwIiBjbGFzcz0idGV4dC1vdXRlci10c3BhbiI+PHRzcGFuIGZvbnQtd2VpZ2h0PSJub3JtYWwiIGNsYXNzPSJ0ZXh0LWlubmVyLXRzcGFuIiBmb250LXN0eWxlPSJub3JtYWwiPiZhbXA7cXVvdDtoYXM8L3RzcGFuPjx0c3BhbiBmb250LXdlaWdodD0ibm9ybWFsIiBjbGFzcz0idGV4dC1pbm5lci10c3BhbiIgZm9udC1zdHlsZT0ibm9ybWFsIj4gcmVmZXJlbmNlPC90c3Bhbj48L3RzcGFuPjx0c3BhbiBkeT0iMS4xZW0iIHk9IjFlbSIgeD0iMCIgY2xhc3M9InRleHQtb3V0ZXItdHNwYW4iPjx0c3BhbiBmb250LXdlaWdodD0ibm9ybWFsIiBjbGFzcz0idGV4dC1pbm5lci10c3BhbiIgZm9udC1zdHlsZT0ibm9ybWFsIj50byZhbXA7cXVvdDs8L3RzcGFuPjwvdHNwYW4+PC90ZXh0PjwvZz48L2c+PC9nPjxnIHRyYW5zZm9ybT0idHJhbnNsYXRlKDM2OC4xMjEwODUxNjY5MzExNSwgMTAxMy4zOTk5OTk2MTg1MzAzKSIgY2xhc3M9ImVkZ2VMYWJlbCI+PGcgdHJhbnNmb3JtPSJ0cmFuc2xhdGUoLTc2LjEwMTU2MjUsIC0yMCkiIGNsYXNzPSJsYWJlbCI+PGc+PHJlY3QgaGVpZ2h0PSI0MCIgd2lkdGg9IjE1Mi4yMDMxMjUiIHk9Ii0xLjE5OTk5OTk4ODA3OTA3MSIgeD0iLTIiIHN0eWxlPSI7ZGlzcGxheTogaW5saW5lLWJsb2NrIiBjbGFzcz0iYmFja2dyb3VuZCI+PC9yZWN0Pjx0ZXh0IHN0eWxlPSI7ZGlzcGxheTogaW5saW5lLWJsb2NrIiB5PSItMTAuMSI+PHRzcGFuIGR5PSIxLjFlbSIgeT0iLTAuMWVtIiB4PSIwIiBjbGFzcz0idGV4dC1vdXRlci10c3BhbiI+PHRzcGFuIGZvbnQtd2VpZ2h0PSJub3JtYWwiIGNsYXNzPSJ0ZXh0LWlubmVyLXRzcGFuIiBmb250LXN0eWxlPSJub3JtYWwiPiZhbXA7cXVvdDtoYXM8L3RzcGFuPjx0c3BhbiBmb250LXdlaWdodD0ibm9ybWFsIiBjbGFzcz0idGV4dC1pbm5lci10c3BhbiIgZm9udC1zdHlsZT0ibm9ybWFsIj4gcmVmZXJlbmNlPC90c3Bhbj48L3RzcGFuPjx0c3BhbiBkeT0iMS4xZW0iIHk9IjFlbSIgeD0iMCIgY2xhc3M9InRleHQtb3V0ZXItdHNwYW4iPjx0c3BhbiBmb250LXdlaWdodD0ibm9ybWFsIiBjbGFzcz0idGV4dC1pbm5lci10c3BhbiIgZm9udC1zdHlsZT0ibm9ybWFsIj50byZhbXA7cXVvdDs8L3RzcGFuPjwvdHNwYW4+PC90ZXh0PjwvZz48L2c+PC9nPjxnIHRyYW5zZm9ybT0idHJhbnNsYXRlKDc0OC44MjczMzE1NDI5Njg4LCAxMDEzLjM5OTk5OTYxODUzMDMpIiBjbGFzcz0iZWRnZUxhYmVsIj48ZyB0cmFuc2Zvcm09InRyYW5zbGF0ZSgtNzYuMTAxNTYyNSwgLTIwKSIgY2xhc3M9ImxhYmVsIj48Zz48cmVjdCBoZWlnaHQ9IjQwIiB3aWR0aD0iMTUyLjIwMzEyNSIgeT0iLTEuMTk5OTk5OTg4MDc5MDcxIiB4PSItMiIgc3R5bGU9IjtkaXNwbGF5OiBpbmxpbmUtYmxvY2siIGNsYXNzPSJiYWNrZ3JvdW5kIj48L3JlY3Q+PHRleHQgc3R5bGU9IjtkaXNwbGF5OiBpbmxpbmUtYmxvY2siIHk9Ii0xMC4xIj48dHNwYW4gZHk9IjEuMWVtIiB5PSItMC4xZW0iIHg9IjAiIGNsYXNzPSJ0ZXh0LW91dGVyLXRzcGFuIj48dHNwYW4gZm9udC13ZWlnaHQ9Im5vcm1hbCIgY2xhc3M9InRleHQtaW5uZXItdHNwYW4iIGZvbnQtc3R5bGU9Im5vcm1hbCI+JmFtcDtxdW90O2hhczwvdHNwYW4+PHRzcGFuIGZvbnQtd2VpZ2h0PSJub3JtYWwiIGNsYXNzPSJ0ZXh0LWlubmVyLXRzcGFuIiBmb250LXN0eWxlPSJub3JtYWwiPiByZWZlcmVuY2U8L3RzcGFuPjwvdHNwYW4+PHRzcGFuIGR5PSIxLjFlbSIgeT0iMWVtIiB4PSIwIiBjbGFzcz0idGV4dC1vdXRlci10c3BhbiI+PHRzcGFuIGZvbnQtd2VpZ2h0PSJub3JtYWwiIGNsYXNzPSJ0ZXh0LWlubmVyLXRzcGFuIiBmb250LXN0eWxlPSJub3JtYWwiPnRvJmFtcDtxdW90OzwvdHNwYW4+PC90c3Bhbj48L3RleHQ+PC9nPjwvZz48L2c+PC9nPjxnIGNsYXNzPSJub2RlcyI+PGcgdHJhbnNmb3JtPSJ0cmFuc2xhdGUoMzIwLjI0Mzc0MTAzNTQ2MTQsIDEwNykiIGlkPSJjbGFzc0lkLUNvZmZlZU1hY2hpbmVTdGF0ZS01IiBjbGFzcz0ibm9kZSBkZWZhdWx0Ij48ZyBjbGFzcz0iYmFzaWMgbGFiZWwtY29udGFpbmVyIj48cGF0aCBzdHlsZT0iIiBmaWxsPSIjZWVlIiBzdHJva2Utd2lkdGg9IjAiIHN0cm9rZT0ibm9uZSIgZD0iTS0xMzEuMjE1NjI5NTc3NjM2NzIgLTk5IEwxMzEuMjE1NjI5NTc3NjM2NzIgLTk5IEwxMzEuMjE1NjI5NTc3NjM2NzIgOTkgTC0xMzEuMjE1NjI5NTc3NjM2NzIgOTkiPjwvcGF0aD48cGF0aCBzdHlsZT0iIiBmaWxsPSJub25lIiBzdHJva2Utd2lkdGg9IjEuMyIgc3Ryb2tlPSIjOTk5IiBkPSJNLTEzMS4yMTU2Mjk1Nzc2MzY3MiAtOTkgQy0zMi4zODM0Mzk1MTc1NjU3MyAtOTksIDY2LjQ0ODc1MDU0MjUwNTI1IC05OSwgMTMxLjIxNTYyOTU3NzYzNjcyIC05OSBNLTEzMS4yMTU2Mjk1Nzc2MzY3MiAtOTkgQy00Mi45NDQyODkwOTIyODc2NSAtOTksIDQ1LjMyNzA1MTM5MzA2MTQyNCAtOTksIDEzMS4yMTU2Mjk1Nzc2MzY3MiAtOTkgTTEzMS4yMTU2Mjk1Nzc2MzY3MiAtOTkgQzEzMS4yMTU2Mjk1Nzc2MzY3MiAtMjIuMDU2MDkyODYxODM3NSwgMTMxLjIxNTYyOTU3NzYzNjcyIDU0Ljg4NzgxNDI3NjMyNSwgMTMxLjIxNTYyOTU3NzYzNjcyIDk5IE0xMzEuMjE1NjI5NTc3NjM2NzIgLTk5IEMxMzEuMjE1NjI5NTc3NjM2NzIgLTQxLjk0NTI4MDY5NjAwOTQyNiwgMTMxLjIxNTYyOTU3NzYzNjcyIDE1LjEwOTQzODYwNzk4MTE0NywgMTMxLjIxNTYyOTU3NzYzNjcyIDk5IE0xMzEuMjE1NjI5NTc3NjM2NzIgOTkgQzc4LjY3MDY5MTI0MTg3OTA0IDk5LCAyNi4xMjU3NTI5MDYxMjEzNjMgOTksIC0xMzEuMjE1NjI5NTc3NjM2NzIgOTkgTTEzMS4yMTU2Mjk1Nzc2MzY3MiA5OSBDNzIuMTc5MDQyMzAwMDk3MTQgOTksIDEzLjE0MjQ1NTAyMjU1NzU3IDk5LCAtMTMxLjIxNTYyOTU3NzYzNjcyIDk5IE0tMTMxLjIxNTYyOTU3NzYzNjcyIDk5IEMtMTMxLjIxNTYyOTU3NzYzNjcyIDU1LjMzNTQxMjA2MTI4MzQ3LCAtMTMxLjIxNTYyOTU3NzYzNjcyIDExLjY3MDgyNDEyMjU2Njk0MSwgLTEzMS4yMTU2Mjk1Nzc2MzY3MiAtOTkgTS0xMzEuMjE1NjI5NTc3NjM2NzIgOTkgQy0xMzEuMjE1NjI5NTc3NjM2NzIgNTAuMjY3ODUxNDM0NzE0NywgLTEzMS4yMTU2Mjk1Nzc2MzY3MiAxLjUzNTcwMjg2OTQyOTQwMDIsIC0xMzEuMjE1NjI5NTc3NjM2NzIgLTk5Ij48L3BhdGg+PC9nPjxnIHRyYW5zZm9ybT0idHJhbnNsYXRlKC00MS4xNzQ5OTkyMzcwNjA1NSwgLTc1KSIgY2xhc3M9ImFubm90YXRpb24tZ3JvdXAgdGV4dCI+PGcgdHJhbnNmb3JtPSJ0cmFuc2xhdGUoMCwtMTIpIiBzdHlsZT0iIiBjbGFzcz0ibGFiZWwiPjxmb3JlaWduT2JqZWN0IGhlaWdodD0iMjQiIHdpZHRoPSI4Mi4zNDk5OTg0NzQxMjExIj48ZGl2IHN0eWxlPSJkaXNwbGF5OiB0YWJsZS1jZWxsOyB3aGl0ZS1zcGFjZTogbm93cmFwOyBsaW5lLWhlaWdodDogMS41OyBtYXgtd2lkdGg6IDEyN3B4OyB0ZXh0LWFsaWduOiBjZW50ZXI7IiB4bWxucz0iaHR0cDovL3d3dy53My5vcmcvMTk5OS94aHRtbCI+PHNwYW4gc3R5bGU9IiIgY2xhc3M9Im5vZGVMYWJlbCBtYXJrZG93bi1ub2RlLWxhYmVsIj48cD7Cq2ludGVyZmFjZcK7PC9wPjwvc3Bhbj48L2Rpdj48L2ZvcmVpZ25PYmplY3Q+PC9nPjwvZz48ZyB0cmFuc2Zvcm09InRyYW5zbGF0ZSgtNzQuNTkzNzUsIC01MSkiIGNsYXNzPSJsYWJlbC1ncm91cCB0ZXh0Ij48ZyB0cmFuc2Zvcm09InRyYW5zbGF0ZSgwLC0xMikiIHN0eWxlPSJmb250LXdlaWdodDogYm9sZGVyIiBjbGFzcz0ibGFiZWwiPjxmb3JlaWduT2JqZWN0IGhlaWdodD0iMjQiIHdpZHRoPSIxNDkuMTg3NSI+PGRpdiBzdHlsZT0iZGlzcGxheTogdGFibGUtY2VsbDsgd2hpdGUtc3BhY2U6IG5vd3JhcDsgbGluZS1oZWlnaHQ6IDEuNTsgbWF4LXdpZHRoOiAxOTJweDsgdGV4dC1hbGlnbjogY2VudGVyOyIgeG1sbnM9Imh0dHA6Ly93d3cudzMub3JnLzE5OTkveGh0bWwiPjxzcGFuIHN0eWxlPSIiIGNsYXNzPSJub2RlTGFiZWwgbWFya2Rvd24tbm9kZS1sYWJlbCI+PHA+Q29mZmVlTWFjaGluZVN0YXRlPC9wPjwvc3Bhbj48L2Rpdj48L2ZvcmVpZ25PYmplY3Q+PC9nPjwvZz48ZyB0cmFuc2Zvcm09InRyYW5zbGF0ZSgtMTE5LjIxNTYyOTU3NzYzNjcyLCAtMykiIGNsYXNzPSJtZW1iZXJzLWdyb3VwIHRleHQiPjwvZz48ZyB0cmFuc2Zvcm09InRyYW5zbGF0ZSgtMTE5LjIxNTYyOTU3NzYzNjcyLCAyNykiIGNsYXNzPSJtZXRob2RzLWdyb3VwIHRleHQiPjxnIHRyYW5zZm9ybT0idHJhbnNsYXRlKDAsLTEyKSIgc3R5bGU9IiIgY2xhc3M9ImxhYmVsIj48Zm9yZWlnbk9iamVjdCBoZWlnaHQ9IjI0IiB3aWR0aD0iMTI3LjQwMDAwMTUyNTg3ODkiPjxkaXYgc3R5bGU9ImRpc3BsYXk6IHRhYmxlLWNlbGw7IHdoaXRlLXNwYWNlOiBub3dyYXA7IGxpbmUtaGVpZ2h0OiAxLjU7IG1heC13aWR0aDogMTgzcHg7IHRleHQtYWxpZ246IGNlbnRlcjsiIHhtbG5zPSJodHRwOi8vd3d3LnczLm9yZy8xOTk5L3hodG1sIj48c3BhbiBzdHlsZT0iIiBjbGFzcz0ibm9kZUxhYmVsIG1hcmtkb3duLW5vZGUtbGFiZWwiPjxwPit2b2lkIGluc2VydENvaW4oKTwvcD48L3NwYW4+PC9kaXY+PC9mb3JlaWduT2JqZWN0PjwvZz48ZyB0cmFuc2Zvcm09InRyYW5zbGF0ZSgwLDEyKSIgc3R5bGU9IiIgY2xhc3M9ImxhYmVsIj48Zm9yZWlnbk9iamVjdCBoZWlnaHQ9IjI0IiB3aWR0aD0iMTQ1LjIxMjUwOTE1NTI3MzQ0Ij48ZGl2IHN0eWxlPSJkaXNwbGF5OiB0YWJsZS1jZWxsOyB3aGl0ZS1zcGFjZTogbm93cmFwOyBsaW5lLWhlaWdodDogMS41OyBtYXgtd2lkdGg6IDE5OHB4OyB0ZXh0LWFsaWduOiBjZW50ZXI7IiB4bWxucz0iaHR0cDovL3d3dy53My5vcmcvMTk5OS94aHRtbCI+PHNwYW4gc3R5bGU9IiIgY2xhc3M9Im5vZGVMYWJlbCBtYXJrZG93bi1ub2RlLWxhYmVsIj48cD4rdm9pZCBzZWxlY3RDb2ZmZWUoKTwvcD48L3NwYW4+PC9kaXY+PC9mb3JlaWduT2JqZWN0PjwvZz48ZyB0cmFuc2Zvcm09InRyYW5zbGF0ZSgwLDM2KSIgc3R5bGU9IiIgY2xhc3M9ImxhYmVsIj48Zm9yZWlnbk9iamVjdCBoZWlnaHQ9IjI0IiB3aWR0aD0iMTYzLjgzNzUwOTE1NTI3MzQ0Ij48ZGl2IHN0eWxlPSJkaXNwbGF5OiB0YWJsZS1jZWxsOyB3aGl0ZS1zcGFjZTogbm93cmFwOyBsaW5lLWhlaWdodDogMS41OyBtYXgtd2lkdGg6IDIyMHB4OyB0ZXh0LWFsaWduOiBjZW50ZXI7IiB4bWxucz0iaHR0cDovL3d3dy53My5vcmcvMTk5OS94aHRtbCI+PHNwYW4gc3R5bGU9IiIgY2xhc3M9Im5vZGVMYWJlbCBtYXJrZG93bi1ub2RlLWxhYmVsIj48cD4rdm9pZCBkaXNwZW5zZUNvZmZlZSgpPC9wPjwvc3Bhbj48L2Rpdj48L2ZvcmVpZ25PYmplY3Q+PC9nPjwvZz48ZyBzdHlsZT0iIiBjbGFzcz0iZGl2aWRlciI+PHBhdGggc3R5bGU9IiIgZmlsbD0ibm9uZSIgc3Ryb2tlLXdpZHRoPSIxLjMiIHN0cm9rZT0iIzk5OSIgZD0iTS0xMzEuMjE1NjM3MjA3MDMxMjUgLTI3IEMtNjIuMDYyMzM5MTMzNDU1NzEgLTI3LCA3LjA5MDk1ODk0MDExOTgzMyAtMjcsIDEzMS4yMTU2MzcyMDcwMzEyNSAtMjcgTS0xMzEuMjE1NjM3MjA3MDMxMjUgLTI3IEMtMzMuNDk0MTgxMDA1NTk3NzUgLTI3LCA2NC4yMjcyNzUxOTU4MzU3NCAtMjcsIDEzMS4yMTU2MzcyMDcwMzEyNSAtMjciPjwvcGF0aD48L2c+PGcgc3R5bGU9IiIgY2xhc3M9ImRpdmlkZXIiPjxwYXRoIHN0eWxlPSIiIGZpbGw9Im5vbmUiIHN0cm9rZS13aWR0aD0iMS4zIiBzdHJva2U9IiM5OTkiIGQ9Ik0tMTMxLjIxNTYzNzIwNzAzMTI1IC0zIEMtNzUuODU2NzQzMTkwNzg4OTkgLTMsIC0yMC40OTc4NDkxNzQ1NDY3MTUgLTMsIDEzMS4yMTU2MzcyMDcwMzEyNSAtMyBNLTEzMS4yMTU2MzcyMDcwMzEyNSAtMyBDLTY5LjcyMTg2MzI5MTM0NjUyIC0zLCAtOC4yMjgwODkzNzU2NjE3ODEgLTMsIDEzMS4yMTU2MzcyMDcwMzEyNSAtMyI+PC9wYXRoPjwvZz48L2c+PGcgdHJhbnNmb3JtPSJ0cmFuc2xhdGUoMzU0LjgwMzg5NTk1MDMxNzQsIDM4Ni4zOTk5OTk2MTg1MzAzKSIgaWQ9ImNsYXNzSWQtSWRsZVN0YXRlLTYiIGNsYXNzPSJub2RlIGRlZmF1bHQiPjxnIGNsYXNzPSJiYXNpYyBsYWJlbC1jb250YWluZXIiPjxwYXRoIHN0eWxlPSIiIGZpbGw9IiNlZWUiIHN0cm9rZS13aWR0aD0iMCIgc3Ryb2tlPSJub25lIiBkPSJNLTE3OC4yNzUwMDkxNTUyNzM0NCAtMTA4IEwxNzguMjc1MDA5MTU1MjczNDQgLTEwOCBMMTc4LjI3NTAwOTE1NTI3MzQ0IDEwOCBMLTE3OC4yNzUwMDkxNTUyNzM0NCAxMDgiPjwvcGF0aD48cGF0aCBzdHlsZT0iIiBmaWxsPSJub25lIiBzdHJva2Utd2lkdGg9IjEuMyIgc3Ryb2tlPSIjOTk5IiBkPSJNLTE3OC4yNzUwMDkxNTUyNzM0NCAtMTA4IEMtMzcuMjM0NDQ4NzI5ODE0NTIgLTEwOCwgMTAzLjgwNjExMTY5NTY0NDQgLTEwOCwgMTc4LjI3NTAwOTE1NTI3MzQ0IC0xMDggTS0xNzguMjc1MDA5MTU1MjczNDQgLTEwOCBDLTEwNi41NTU2MTc4ODA1OTY1OSAtMTA4LCAtMzQuODM2MjI2NjA1OTE5NzM0IC0xMDgsIDE3OC4yNzUwMDkxNTUyNzM0NCAtMTA4IE0xNzguMjc1MDA5MTU1MjczNDQgLTEwOCBDMTc4LjI3NTAwOTE1NTI3MzQ0IC02MS4zODcwNjY1NTY1NzE0MSwgMTc4LjI3NTAwOTE1NTI3MzQ0IC0xNC43NzQxMzMxMTMxNDI4MjQsIDE3OC4yNzUwMDkxNTUyNzM0NCAxMDggTTE3OC4yNzUwMDkxNTUyNzM0NCAtMTA4IEMxNzguMjc1MDA5MTU1MjczNDQgLTI1LjAyNTM0Nzg2OTA1NjA3NywgMTc4LjI3NTAwOTE1NTI3MzQ0IDU3Ljk0OTMwNDI2MTg4Nzg0NiwgMTc4LjI3NTAwOTE1NTI3MzQ0IDEwOCBNMTc4LjI3NTAwOTE1NTI3MzQ0IDEwOCBDNzguMzczMjg0NDAyNDYyMzUgMTA4LCAtMjEuNTI4NDQwMzUwMzQ4NzQ1IDEwOCwgLTE3OC4yNzUwMDkxNTUyNzM0NCAxMDggTTE3OC4yNzUwMDkxNTUyNzM0NCAxMDggQzk5LjA5MjU2MDc0Mzk0NDc3IDEwOCwgMTkuOTEwMTEyMzMyNjE2MTEgMTA4LCAtMTc4LjI3NTAwOTE1NTI3MzQ0IDEwOCBNLTE3OC4yNzUwMDkxNTUyNzM0NCAxMDggQy0xNzguMjc1MDA5MTU1MjczNDQgMjguNDM5NjE2MDI2MDAxMDMzLCAtMTc4LjI3NTAwOTE1NTI3MzQ0IC01MS4xMjA3Njc5NDc5OTc5MywgLTE3OC4yNzUwMDkxNTUyNzM0NCAtMTA4IE0tMTc4LjI3NTAwOTE1NTI3MzQ0IDEwOCBDLTE3OC4yNzUwMDkxNTUyNzM0NCAzOC42NTQ4Mjc5MDA5MzY1OTYsIC0xNzguMjc1MDA5MTU1MjczNDQgLTMwLjY5MDM0NDE5ODEyNjgxLCAtMTc4LjI3NTAwOTE1NTI3MzQ0IC0xMDgiPjwvcGF0aD48L2c+PGcgdHJhbnNmb3JtPSJ0cmFuc2xhdGUoMCwgLTg0KSIgY2xhc3M9ImFubm90YXRpb24tZ3JvdXAgdGV4dCI+PC9nPjxnIHRyYW5zZm9ybT0idHJhbnNsYXRlKC0zMy4xMjUsIC04NCkiIGNsYXNzPSJsYWJlbC1ncm91cCB0ZXh0Ij48ZyB0cmFuc2Zvcm09InRyYW5zbGF0ZSgwLC0xMikiIHN0eWxlPSJmb250LXdlaWdodDogYm9sZGVyIiBjbGFzcz0ibGFiZWwiPjxmb3JlaWduT2JqZWN0IGhlaWdodD0iMjQiIHdpZHRoPSI2Ni4yNSI+PGRpdiBzdHlsZT0iZGlzcGxheTogdGFibGUtY2VsbDsgd2hpdGUtc3BhY2U6IG5vd3JhcDsgbGluZS1oZWlnaHQ6IDEuNTsgbWF4LXdpZHRoOiAxMTFweDsgdGV4dC1hbGlnbjogY2VudGVyOyIgeG1sbnM9Imh0dHA6Ly93d3cudzMub3JnLzE5OTkveGh0bWwiPjxzcGFuIHN0eWxlPSIiIGNsYXNzPSJub2RlTGFiZWwgbWFya2Rvd24tbm9kZS1sYWJlbCI+PHA+SWRsZVN0YXRlPC9wPjwvc3Bhbj48L2Rpdj48L2ZvcmVpZ25PYmplY3Q+PC9nPjwvZz48ZyB0cmFuc2Zvcm09InRyYW5zbGF0ZSgtMTY2LjI3NTAwOTE1NTI3MzQ0LCAtMzYpIiBjbGFzcz0ibWVtYmVycy1ncm91cCB0ZXh0Ij48ZyB0cmFuc2Zvcm09InRyYW5zbGF0ZSgwLC0xMikiIHN0eWxlPSIiIGNsYXNzPSJsYWJlbCI+PGZvcmVpZ25PYmplY3QgaGVpZ2h0PSIyNCIgd2lkdGg9IjIyMC44Mzc1MDkxNTUyNzM0NCI+PGRpdiBzdHlsZT0iZGlzcGxheTogdGFibGUtY2VsbDsgd2hpdGUtc3BhY2U6IG5vd3JhcDsgbGluZS1oZWlnaHQ6IDEuNTsgbWF4LXdpZHRoOiAyNzhweDsgdGV4dC1hbGlnbjogY2VudGVyOyIgeG1sbnM9Imh0dHA6Ly93d3cudzMub3JnLzE5OTkveGh0bWwiPjxzcGFuIHN0eWxlPSIiIGNsYXNzPSJub2RlTGFiZWwgbWFya2Rvd24tbm9kZS1sYWJlbCI+PHA+LUNvZmZlZU1hY2hpbmUgY29mZmVlTWFjaGluZTwvcD48L3NwYW4+PC9kaXY+PC9mb3JlaWduT2JqZWN0PjwvZz48L2c+PGcgdHJhbnNmb3JtPSJ0cmFuc2xhdGUoLTE2Ni4yNzUwMDkxNTUyNzM0NCwgMTIpIiBjbGFzcz0ibWV0aG9kcy1ncm91cCB0ZXh0Ij48ZyB0cmFuc2Zvcm09InRyYW5zbGF0ZSgwLC0xMikiIHN0eWxlPSIiIGNsYXNzPSJsYWJlbCI+PGZvcmVpZ25PYmplY3QgaGVpZ2h0PSIyNCIgd2lkdGg9IjI5OS40MjUwMTgzMTA1NDY5Ij48ZGl2IHN0eWxlPSJkaXNwbGF5OiB0YWJsZS1jZWxsOyB3aGl0ZS1zcGFjZTogbm93cmFwOyBsaW5lLWhlaWdodDogMS41OyBtYXgtd2lkdGg6IDM1M3B4OyB0ZXh0LWFsaWduOiBjZW50ZXI7IiB4bWxucz0iaHR0cDovL3d3dy53My5vcmcvMTk5OS94aHRtbCI+PHNwYW4gc3R5bGU9IiIgY2xhc3M9Im5vZGVMYWJlbCBtYXJrZG93bi1ub2RlLWxhYmVsIj48cD4rSWRsZVN0YXRlKENvZmZlZU1hY2hpbmUgY29mZmVlTWFjaGluZSk8L3A+PC9zcGFuPjwvZGl2PjwvZm9yZWlnbk9iamVjdD48L2c+PGcgdHJhbnNmb3JtPSJ0cmFuc2xhdGUoMCwxMikiIHN0eWxlPSIiIGNsYXNzPSJsYWJlbCI+PGZvcmVpZ25PYmplY3QgaGVpZ2h0PSIyNCIgd2lkdGg9IjEyNy40MDAwMDE1MjU4Nzg5Ij48ZGl2IHN0eWxlPSJkaXNwbGF5OiB0YWJsZS1jZWxsOyB3aGl0ZS1zcGFjZTogbm93cmFwOyBsaW5lLWhlaWdodDogMS41OyBtYXgtd2lkdGg6IDE4M3B4OyB0ZXh0LWFsaWduOiBjZW50ZXI7IiB4bWxucz0iaHR0cDovL3d3dy53My5vcmcvMTk5OS94aHRtbCI+PHNwYW4gc3R5bGU9IiIgY2xhc3M9Im5vZGVMYWJlbCBtYXJrZG93bi1ub2RlLWxhYmVsIj48cD4rdm9pZCBpbnNlcnRDb2luKCk8L3A+PC9zcGFuPjwvZGl2PjwvZm9yZWlnbk9iamVjdD48L2c+PGcgdHJhbnNmb3JtPSJ0cmFuc2xhdGUoMCwzNikiIHN0eWxlPSIiIGNsYXNzPSJsYWJlbCI+PGZvcmVpZ25PYmplY3QgaGVpZ2h0PSIyNCIgd2lkdGg9IjE0NS4yMTI1MDkxNTUyNzM0NCI+PGRpdiBzdHlsZT0iZGlzcGxheTogdGFibGUtY2VsbDsgd2hpdGUtc3BhY2U6IG5vd3JhcDsgbGluZS1oZWlnaHQ6IDEuNTsgbWF4LXdpZHRoOiAxOThweDsgdGV4dC1hbGlnbjogY2VudGVyOyIgeG1sbnM9Imh0dHA6Ly93d3cudzMub3JnLzE5OTkveGh0bWwiPjxzcGFuIHN0eWxlPSIiIGNsYXNzPSJub2RlTGFiZWwgbWFya2Rvd24tbm9kZS1sYWJlbCI+PHA+K3ZvaWQgc2VsZWN0Q29mZmVlKCk8L3A+PC9zcGFuPjwvZGl2PjwvZm9yZWlnbk9iamVjdD48L2c+PGcgdHJhbnNmb3JtPSJ0cmFuc2xhdGUoMCw2MCkiIHN0eWxlPSIiIGNsYXNzPSJsYWJlbCI+PGZvcmVpZ25PYmplY3QgaGVpZ2h0PSIyNCIgd2lkdGg9IjE2My44Mzc1MDkxNTUyNzM0NCI+PGRpdiBzdHlsZT0iZGlzcGxheTogdGFibGUtY2VsbDsgd2hpdGUtc3BhY2U6IG5vd3JhcDsgbGluZS1oZWlnaHQ6IDEuNTsgbWF4LXdpZHRoOiAyMjBweDsgdGV4dC1hbGlnbjogY2VudGVyOyIgeG1sbnM9Imh0dHA6Ly93d3cudzMub3JnLzE5OTkveGh0bWwiPjxzcGFuIHN0eWxlPSIiIGNsYXNzPSJub2RlTGFiZWwgbWFya2Rvd24tbm9kZS1sYWJlbCI+PHA+K3ZvaWQgZGlzcGVuc2VDb2ZmZWUoKTwvcD48L3NwYW4+PC9kaXY+PC9mb3JlaWduT2JqZWN0PjwvZz48L2c+PGcgc3R5bGU9IiIgY2xhc3M9ImRpdmlkZXIiPjxwYXRoIHN0eWxlPSIiIGZpbGw9Im5vbmUiIHN0cm9rZS13aWR0aD0iMS4zIiBzdHJva2U9IiM5OTkiIGQ9Ik0tMTc4LjI3NTAwOTE1NTI3MzQ0IC02MCBDLTQyLjMxNDUxOTcwMDA3MTM3IC02MCwgOTMuNjQ1OTY5NzU1MTMwNyAtNjAsIDE3OC4yNzUwMDkxNTUyNzM0NCAtNjAgTS0xNzguMjc1MDA5MTU1MjczNDQgLTYwIEMtMzguOTI1ODM0MTc3NjIwMTc1IC02MCwgMTAwLjQyMzM0MDgwMDAzMzA5IC02MCwgMTc4LjI3NTAwOTE1NTI3MzQ0IC02MCI+PC9wYXRoPjwvZz48ZyBzdHlsZT0iIiBjbGFzcz0iZGl2aWRlciI+PHBhdGggc3R5bGU9IiIgZmlsbD0ibm9uZSIgc3Ryb2tlLXdpZHRoPSIxLjMiIHN0cm9rZT0iIzk5OSIgZD0iTS0xNzguMjc1MDA5MTU1MjczNDQgLTEyIEMtOTAuOTQwMzExMDUzMDUyNTQgLTEyLCAtMy42MDU2MTI5NTA4MzE2NDE3IC0xMiwgMTc4LjI3NTAwOTE1NTI3MzQ0IC0xMiBNLTE3OC4yNzUwMDkxNTUyNzM0NCAtMTIgQy02Ni42MDE1Njc0NDcyNTUxNSAtMTIsIDQ1LjA3MTg3NDI2MDc2MzE0IC0xMiwgMTc4LjI3NTAwOTE1NTI3MzQ0IC0xMiI+PC9wYXRoPjwvZz48L2c+PGcgdHJhbnNmb3JtPSJ0cmFuc2xhdGUoMjE1LjcwOTM2NTg0NDcyNjU2LCAxMTY2LjM5OTk5OTYxODUzMDMpIiBpZD0iY2xhc3NJZC1TZWxlY3RpbmdTdGF0ZS03IiBjbGFzcz0ibm9kZSBkZWZhdWx0Ij48ZyBjbGFzcz0iYmFzaWMgbGFiZWwtY29udGFpbmVyIj48cGF0aCBzdHlsZT0iIiBmaWxsPSIjZWVlIiBzdHJva2Utd2lkdGg9IjAiIHN0cm9rZT0ibm9uZSIgZD0iTS0yMDcuNzA5MzY1ODQ0NzI2NTYgLTEwOCBMMjA3LjcwOTM2NTg0NDcyNjU2IC0xMDggTDIwNy43MDkzNjU4NDQ3MjY1NiAxMDggTC0yMDcuNzA5MzY1ODQ0NzI2NTYgMTA4Ij48L3BhdGg+PHBhdGggc3R5bGU9IiIgZmlsbD0ibm9uZSIgc3Ryb2tlLXdpZHRoPSIxLjMiIHN0cm9rZT0iIzk5OSIgZD0iTS0yMDcuNzA5MzY1ODQ0NzI2NTYgLTEwOCBDLTczLjA5MjczMDM1OTY2NTI0IC0xMDgsIDYxLjUyMzkwNTEyNTM5NjA4NCAtMTA4LCAyMDcuNzA5MzY1ODQ0NzI2NTYgLTEwOCBNLTIwNy43MDkzNjU4NDQ3MjY1NiAtMTA4IEMtMTIzLjU5NzU2NTkyMzU1MTQgLTEwOCwgLTM5LjQ4NTc2NjAwMjM3NjI0IC0xMDgsIDIwNy43MDkzNjU4NDQ3MjY1NiAtMTA4IE0yMDcuNzA5MzY1ODQ0NzI2NTYgLTEwOCBDMjA3LjcwOTM2NTg0NDcyNjU2IC0zNy40ODQ1NzMwMzA2NTEzNSwgMjA3LjcwOTM2NTg0NDcyNjU2IDMzLjAzMDg1MzkzODY5NzMwNSwgMjA3LjcwOTM2NTg0NDcyNjU2IDEwOCBNMjA3LjcwOTM2NTg0NDcyNjU2IC0xMDggQzIwNy43MDkzNjU4NDQ3MjY1NiAtNDguMTMxNzIwNTc1NjA3ODMsIDIwNy43MDkzNjU4NDQ3MjY1NiAxMS43MzY1NTg4NDg3ODQzNDEsIDIwNy43MDkzNjU4NDQ3MjY1NiAxMDggTTIwNy43MDkzNjU4NDQ3MjY1NiAxMDggQzQ5LjI5NzUzODQ5NTE3NjUyNSAxMDgsIC0xMDkuMTE0Mjg4ODU0MzczNTEgMTA4LCAtMjA3LjcwOTM2NTg0NDcyNjU2IDEwOCBNMjA3LjcwOTM2NTg0NDcyNjU2IDEwOCBDMTIwLjA5OTQwNzA4Nzc4MzY1IDEwOCwgMzIuNDg5NDQ4MzMwODQwNzMgMTA4LCAtMjA3LjcwOTM2NTg0NDcyNjU2IDEwOCBNLTIwNy43MDkzNjU4NDQ3MjY1NiAxMDggQy0yMDcuNzA5MzY1ODQ0NzI2NTYgNDQuMDI0ODYxMjkzOTUzMDEsIC0yMDcuNzA5MzY1ODQ0NzI2NTYgLTE5Ljk1MDI3NzQxMjA5Mzk4MiwgLTIwNy43MDkzNjU4NDQ3MjY1NiAtMTA4IE0tMjA3LjcwOTM2NTg0NDcyNjU2IDEwOCBDLTIwNy43MDkzNjU4NDQ3MjY1NiA0OC42MTU5MzMzMzA0NDc0MSwgLTIwNy43MDkzNjU4NDQ3MjY1NiAtMTAuNzY4MTMzMzM5MTA1MTc3LCAtMjA3LjcwOTM2NTg0NDcyNjU2IC0xMDgiPjwvcGF0aD48L2c+PGcgdHJhbnNmb3JtPSJ0cmFuc2xhdGUoMCwgLTg0KSIgY2xhc3M9ImFubm90YXRpb24tZ3JvdXAgdGV4dCI+PC9nPjxnIHRyYW5zZm9ybT0idHJhbnNsYXRlKC01My4zMzEyNDkyMzcwNjA1NSwgLTg0KSIgY2xhc3M9ImxhYmVsLWdyb3VwIHRleHQiPjxnIHRyYW5zZm9ybT0idHJhbnNsYXRlKDAsLTEyKSIgc3R5bGU9ImZvbnQtd2VpZ2h0OiBib2xkZXIiIGNsYXNzPSJsYWJlbCI+PGZvcmVpZ25PYmplY3QgaGVpZ2h0PSIyNCIgd2lkdGg9IjEwNi42NjI0OTg0NzQxMjExIj48ZGl2IHN0eWxlPSJkaXNwbGF5OiB0YWJsZS1jZWxsOyB3aGl0ZS1zcGFjZTogbm93cmFwOyBsaW5lLWhlaWdodDogMS41OyBtYXgtd2lkdGg6IDE1MHB4OyB0ZXh0LWFsaWduOiBjZW50ZXI7IiB4bWxucz0iaHR0cDovL3d3dy53My5vcmcvMTk5OS94aHRtbCI+PHNwYW4gc3R5bGU9IiIgY2xhc3M9Im5vZGVMYWJlbCBtYXJrZG93bi1ub2RlLWxhYmVsIj48cD5TZWxlY3RpbmdTdGF0ZTwvcD48L3NwYW4+PC9kaXY+PC9mb3JlaWduT2JqZWN0PjwvZz48L2c+PGcgdHJhbnNmb3JtPSJ0cmFuc2xhdGUoLTE5NS43MDkzNjU4NDQ3MjY1NiwgLTM2KSIgY2xhc3M9Im1lbWJlcnMtZ3JvdXAgdGV4dCI+PGcgdHJhbnNmb3JtPSJ0cmFuc2xhdGUoMCwtMTIpIiBzdHlsZT0iIiBjbGFzcz0ibGFiZWwiPjxmb3JlaWduT2JqZWN0IGhlaWdodD0iMjQiIHdpZHRoPSIyMjAuODM3NTA5MTU1MjczNDQiPjxkaXYgc3R5bGU9ImRpc3BsYXk6IHRhYmxlLWNlbGw7IHdoaXRlLXNwYWNlOiBub3dyYXA7IGxpbmUtaGVpZ2h0OiAxLjU7IG1heC13aWR0aDogMjc4cHg7IHRleHQtYWxpZ246IGNlbnRlcjsiIHhtbG5zPSJodHRwOi8vd3d3LnczLm9yZy8xOTk5L3hodG1sIj48c3BhbiBzdHlsZT0iIiBjbGFzcz0ibm9kZUxhYmVsIG1hcmtkb3duLW5vZGUtbGFiZWwiPjxwPi1Db2ZmZWVNYWNoaW5lIGNvZmZlZU1hY2hpbmU8L3A+PC9zcGFuPjwvZGl2PjwvZm9yZWlnbk9iamVjdD48L2c+PC9nPjxnIHRyYW5zZm9ybT0idHJhbnNsYXRlKC0xOTUuNzA5MzY1ODQ0NzI2NTYsIDEyKSIgY2xhc3M9Im1ldGhvZHMtZ3JvdXAgdGV4dCI+PGcgdHJhbnNmb3JtPSJ0cmFuc2xhdGUoMCwtMTIpIiBzdHlsZT0iIiBjbGFzcz0ibGFiZWwiPjxmb3JlaWduT2JqZWN0IGhlaWdodD0iMjQiIHdpZHRoPSIzMzguMDg3NDkzODk2NDg0NCI+PGRpdiBzdHlsZT0iZGlzcGxheTogdGFibGUtY2VsbDsgd2hpdGUtc3BhY2U6IG5vd3JhcDsgbGluZS1oZWlnaHQ6IDEuNTsgbWF4LXdpZHRoOiAzOTJweDsgdGV4dC1hbGlnbjogY2VudGVyOyIgeG1sbnM9Imh0dHA6Ly93d3cudzMub3JnLzE5OTkveGh0bWwiPjxzcGFuIHN0eWxlPSIiIGNsYXNzPSJub2RlTGFiZWwgbWFya2Rvd24tbm9kZS1sYWJlbCI+PHA+K1NlbGVjdGluZ1N0YXRlKENvZmZlZU1hY2hpbmUgY29mZmVlTWFjaGluZSk8L3A+PC9zcGFuPjwvZGl2PjwvZm9yZWlnbk9iamVjdD48L2c+PGcgdHJhbnNmb3JtPSJ0cmFuc2xhdGUoMCwxMikiIHN0eWxlPSIiIGNsYXNzPSJsYWJlbCI+PGZvcmVpZ25PYmplY3QgaGVpZ2h0PSIyNCIgd2lkdGg9IjEyNy40MDAwMDE1MjU4Nzg5Ij48ZGl2IHN0eWxlPSJkaXNwbGF5OiB0YWJsZS1jZWxsOyB3aGl0ZS1zcGFjZTogbm93cmFwOyBsaW5lLWhlaWdodDogMS41OyBtYXgtd2lkdGg6IDE4M3B4OyB0ZXh0LWFsaWduOiBjZW50ZXI7IiB4bWxucz0iaHR0cDovL3d3dy53My5vcmcvMTk5OS94aHRtbCI+PHNwYW4gc3R5bGU9IiIgY2xhc3M9Im5vZGVMYWJlbCBtYXJrZG93bi1ub2RlLWxhYmVsIj48cD4rdm9pZCBpbnNlcnRDb2luKCk8L3A+PC9zcGFuPjwvZGl2PjwvZm9yZWlnbk9iamVjdD48L2c+PGcgdHJhbnNmb3JtPSJ0cmFuc2xhdGUoMCwzNikiIHN0eWxlPSIiIGNsYXNzPSJsYWJlbCI+PGZvcmVpZ25PYmplY3QgaGVpZ2h0PSIyNCIgd2lkdGg9IjE0NS4yMTI1MDkxNTUyNzM0NCI+PGRpdiBzdHlsZT0iZGlzcGxheTogdGFibGUtY2VsbDsgd2hpdGUtc3BhY2U6IG5vd3JhcDsgbGluZS1oZWlnaHQ6IDEuNTsgbWF4LXdpZHRoOiAxOThweDsgdGV4dC1hbGlnbjogY2VudGVyOyIgeG1sbnM9Imh0dHA6Ly93d3cudzMub3JnLzE5OTkveGh0bWwiPjxzcGFuIHN0eWxlPSIiIGNsYXNzPSJub2RlTGFiZWwgbWFya2Rvd24tbm9kZS1sYWJlbCI+PHA+K3ZvaWQgc2VsZWN0Q29mZmVlKCk8L3A+PC9zcGFuPjwvZGl2PjwvZm9yZWlnbk9iamVjdD48L2c+PGcgdHJhbnNmb3JtPSJ0cmFuc2xhdGUoMCw2MCkiIHN0eWxlPSIiIGNsYXNzPSJsYWJlbCI+PGZvcmVpZ25PYmplY3QgaGVpZ2h0PSIyNCIgd2lkdGg9IjE2My44Mzc1MDkxNTUyNzM0NCI+PGRpdiBzdHlsZT0iZGlzcGxheTogdGFibGUtY2VsbDsgd2hpdGUtc3BhY2U6IG5vd3JhcDsgbGluZS1oZWlnaHQ6IDEuNTsgbWF4LXdpZHRoOiAyMjBweDsgdGV4dC1hbGlnbjogY2VudGVyOyIgeG1sbnM9Imh0dHA6Ly93d3cudzMub3JnLzE5OTkveGh0bWwiPjxzcGFuIHN0eWxlPSIiIGNsYXNzPSJub2RlTGFiZWwgbWFya2Rvd24tbm9kZS1sYWJlbCI+PHA+K3ZvaWQgZGlzcGVuc2VDb2ZmZWUoKTwvcD48L3NwYW4+PC9kaXY+PC9mb3JlaWduT2JqZWN0PjwvZz48L2c+PGcgc3R5bGU9IiIgY2xhc3M9ImRpdmlkZXIiPjxwYXRoIHN0eWxlPSIiIGZpbGw9Im5vbmUiIHN0cm9rZS13aWR0aD0iMS4zIiBzdHJva2U9IiM5OTkiIGQ9Ik0tMjA3LjcwOTM2NTg0NDcyNjU2IC02MCBDLTQ0LjA1MDQ2NTcyMzAzNDk2IC02MCwgMTE5LjYwODQzNDM5ODY1NjY0IC02MCwgMjA3LjcwOTM2NTg0NDcyNjU2IC02MCBNLTIwNy43MDkzNjU4NDQ3MjY1NiAtNjAgQy05OC42NjczODIxMDY4NjgyNyAtNjAsIDEwLjM3NDYwMTYzMDk5MDAxNCAtNjAsIDIwNy43MDkzNjU4NDQ3MjY1NiAtNjAiPjwvcGF0aD48L2c+PGcgc3R5bGU9IiIgY2xhc3M9ImRpdmlkZXIiPjxwYXRoIHN0eWxlPSIiIGZpbGw9Im5vbmUiIHN0cm9rZS13aWR0aD0iMS4zIiBzdHJva2U9IiM5OTkiIGQ9Ik0tMjA3LjcwOTM2NTg0NDcyNjU2IC0xMiBDLTQ4LjQzODI1NTk4NjE0MDkxNiAtMTIsIDExMC44MzI4NTM4NzI0NDQ3MyAtMTIsIDIwNy43MDkzNjU4NDQ3MjY1NiAtMTIgTS0yMDcuNzA5MzY1ODQ0NzI2NTYgLTEyIEMtODMuMTM4NzA3NDYyOTUwNCAtMTIsIDQxLjQzMTk1MDkxODgyNTc1IC0xMiwgMjA3LjcwOTM2NTg0NDcyNjU2IC0xMiI+PC9wYXRoPjwvZz48L2c+PGcgdHJhbnNmb3JtPSJ0cmFuc2xhdGUoNjkyLjE3MDMwMDQ4MzcwMzYsIDExNjYuMzk5OTk5NjE4NTMwMykiIGlkPSJjbGFzc0lkLURpc3BlbnNpbmdTdGF0ZS04IiBjbGFzcz0ibm9kZSBkZWZhdWx0Ij48ZyBjbGFzcz0iYmFzaWMgbGFiZWwtY29udGFpbmVyIj48cGF0aCBzdHlsZT0iIiBmaWxsPSIjZWVlIiBzdHJva2Utd2lkdGg9IjAiIHN0cm9rZT0ibm9uZSIgZD0iTS0yMTUuMjQwNjMxMTAzNTE1NjIgLTEwOCBMMjE1LjI0MDYzMTEwMzUxNTYyIC0xMDggTDIxNS4yNDA2MzExMDM1MTU2MiAxMDggTC0yMTUuMjQwNjMxMTAzNTE1NjIgMTA4Ij48L3BhdGg+PHBhdGggc3R5bGU9IiIgZmlsbD0ibm9uZSIgc3Ryb2tlLXdpZHRoPSIxLjMiIHN0cm9rZT0iIzk5OSIgZD0iTS0yMTUuMjQwNjMxMTAzNTE1NjIgLTEwOCBDLTg4Ljk4Mzk3OTgxNTA3NTYzIC0xMDgsIDM3LjI3MjY3MTQ3MzM2NDM3IC0xMDgsIDIxNS4yNDA2MzExMDM1MTU2MiAtMTA4IE0tMjE1LjI0MDYzMTEwMzUxNTYyIC0xMDggQy02My40Njg5NDIwMDQ2NDI0IC0xMDgsIDg4LjMwMjc0NzA5NDIzMDgyIC0xMDgsIDIxNS4yNDA2MzExMDM1MTU2MiAtMTA4IE0yMTUuMjQwNjMxMTAzNTE1NjIgLTEwOCBDMjE1LjI0MDYzMTEwMzUxNTYyIC00Mi4zMTExNjU3NjYwMDQxNCwgMjE1LjI0MDYzMTEwMzUxNTYyIDIzLjM3NzY2ODQ2Nzk5MTcyNSwgMjE1LjI0MDYzMTEwMzUxNTYyIDEwOCBNMjE1LjI0MDYzMTEwMzUxNTYyIC0xMDggQzIxNS4yNDA2MzExMDM1MTU2MiAtNDguODE1NjY1MDczMzgxNzIsIDIxNS4yNDA2MzExMDM1MTU2MiAxMC4zNjg2Njk4NTMyMzY1NTQsIDIxNS4yNDA2MzExMDM1MTU2MiAxMDggTTIxNS4yNDA2MzExMDM1MTU2MiAxMDggQzYwLjM1MzAwMzg2MzY2MjYyIDEwOCwgLTk0LjUzNDYyMzM3NjE5MDM4IDEwOCwgLTIxNS4yNDA2MzExMDM1MTU2MiAxMDggTTIxNS4yNDA2MzExMDM1MTU2MiAxMDggQzc3LjM0NDU1MzMwNDk2NjE4IDEwOCwgLTYwLjU1MTUyNDQ5MzU4MzI2IDEwOCwgLTIxNS4yNDA2MzExMDM1MTU2MiAxMDggTS0yMTUuMjQwNjMxMTAzNTE1NjIgMTA4IEMtMjE1LjI0MDYzMTEwMzUxNTYyIDM2LjI2MzYyOTAyODczNTAxLCAtMjE1LjI0MDYzMTEwMzUxNTYyIC0zNS40NzI3NDE5NDI1Mjk5OCwgLTIxNS4yNDA2MzExMDM1MTU2MiAtMTA4IE0tMjE1LjI0MDYzMTEwMzUxNTYyIDEwOCBDLTIxNS4yNDA2MzExMDM1MTU2MiA2MC4xODU2NzIxOTU4MTY2MTUsIC0yMTUuMjQwNjMxMTAzNTE1NjIgMTIuMzcxMzQ0MzkxNjMzMjMsIC0yMTUuMjQwNjMxMTAzNTE1NjIgLTEwOCI+PC9wYXRoPjwvZz48ZyB0cmFuc2Zvcm09InRyYW5zbGF0ZSgwLCAtODQpIiBjbGFzcz0iYW5ub3RhdGlvbi1ncm91cCB0ZXh0Ij48L2c+PGcgdHJhbnNmb3JtPSJ0cmFuc2xhdGUoLTU4LjgxODc1MjI4ODgxODM2LCAtODQpIiBjbGFzcz0ibGFiZWwtZ3JvdXAgdGV4dCI+PGcgdHJhbnNmb3JtPSJ0cmFuc2xhdGUoMCwtMTIpIiBzdHlsZT0iZm9udC13ZWlnaHQ6IGJvbGRlciIgY2xhc3M9ImxhYmVsIj48Zm9yZWlnbk9iamVjdCBoZWlnaHQ9IjI0IiB3aWR0aD0iMTE3LjYzNzUwNDU3NzYzNjcyIj48ZGl2IHN0eWxlPSJkaXNwbGF5OiB0YWJsZS1jZWxsOyB3aGl0ZS1zcGFjZTogbm93cmFwOyBsaW5lLWhlaWdodDogMS41OyBtYXgtd2lkdGg6IDE2M3B4OyB0ZXh0LWFsaWduOiBjZW50ZXI7IiB4bWxucz0iaHR0cDovL3d3dy53My5vcmcvMTk5OS94aHRtbCI+PHNwYW4gc3R5bGU9IiIgY2xhc3M9Im5vZGVMYWJlbCBtYXJrZG93bi1ub2RlLWxhYmVsIj48cD5EaXNwZW5zaW5nU3RhdGU8L3A+PC9zcGFuPjwvZGl2PjwvZm9yZWlnbk9iamVjdD48L2c+PC9nPjxnIHRyYW5zZm9ybT0idHJhbnNsYXRlKC0yMDMuMjQwNjMxMTAzNTE1NjIsIC0zNikiIGNsYXNzPSJtZW1iZXJzLWdyb3VwIHRleHQiPjxnIHRyYW5zZm9ybT0idHJhbnNsYXRlKDAsLTEyKSIgc3R5bGU9IiIgY2xhc3M9ImxhYmVsIj48Zm9yZWlnbk9iamVjdCBoZWlnaHQ9IjI0IiB3aWR0aD0iMjIwLjgzNzUwOTE1NTI3MzQ0Ij48ZGl2IHN0eWxlPSJkaXNwbGF5OiB0YWJsZS1jZWxsOyB3aGl0ZS1zcGFjZTogbm93cmFwOyBsaW5lLWhlaWdodDogMS41OyBtYXgtd2lkdGg6IDI3OHB4OyB0ZXh0LWFsaWduOiBjZW50ZXI7IiB4bWxucz0iaHR0cDovL3d3dy53My5vcmcvMTk5OS94aHRtbCI+PHNwYW4gc3R5bGU9IiIgY2xhc3M9Im5vZGVMYWJlbCBtYXJrZG93bi1ub2RlLWxhYmVsIj48cD4tQ29mZmVlTWFjaGluZSBjb2ZmZWVNYWNoaW5lPC9wPjwvc3Bhbj48L2Rpdj48L2ZvcmVpZ25PYmplY3Q+PC9nPjwvZz48ZyB0cmFuc2Zvcm09InRyYW5zbGF0ZSgtMjAzLjI0MDYzMTEwMzUxNTYyLCAxMikiIGNsYXNzPSJtZXRob2RzLWdyb3VwIHRleHQiPjxnIHRyYW5zZm9ybT0idHJhbnNsYXRlKDAsLTEyKSIgc3R5bGU9IiIgY2xhc3M9ImxhYmVsIj48Zm9yZWlnbk9iamVjdCBoZWlnaHQ9IjI0IiB3aWR0aD0iMzQ3LjY2MjUwNjEwMzUxNTYiPjxkaXYgc3R5bGU9ImRpc3BsYXk6IHRhYmxlLWNlbGw7IHdoaXRlLXNwYWNlOiBub3dyYXA7IGxpbmUtaGVpZ2h0OiAxLjU7IG1heC13aWR0aDogNDA1cHg7IHRleHQtYWxpZ246IGNlbnRlcjsiIHhtbG5zPSJodHRwOi8vd3d3LnczLm9yZy8xOTk5L3hodG1sIj48c3BhbiBzdHlsZT0iIiBjbGFzcz0ibm9kZUxhYmVsIG1hcmtkb3duLW5vZGUtbGFiZWwiPjxwPitEaXNwZW5zaW5nU3RhdGUoQ29mZmVlTWFjaGluZSBjb2ZmZWVNYWNoaW5lKTwvcD48L3NwYW4+PC9kaXY+PC9mb3JlaWduT2JqZWN0PjwvZz48ZyB0cmFuc2Zvcm09InRyYW5zbGF0ZSgwLDEyKSIgc3R5bGU9IiIgY2xhc3M9ImxhYmVsIj48Zm9yZWlnbk9iamVjdCBoZWlnaHQ9IjI0IiB3aWR0aD0iMTI3LjQwMDAwMTUyNTg3ODkiPjxkaXYgc3R5bGU9ImRpc3BsYXk6IHRhYmxlLWNlbGw7IHdoaXRlLXNwYWNlOiBub3dyYXA7IGxpbmUtaGVpZ2h0OiAxLjU7IG1heC13aWR0aDogMTgzcHg7IHRleHQtYWxpZ246IGNlbnRlcjsiIHhtbG5zPSJodHRwOi8vd3d3LnczLm9yZy8xOTk5L3hodG1sIj48c3BhbiBzdHlsZT0iIiBjbGFzcz0ibm9kZUxhYmVsIG1hcmtkb3duLW5vZGUtbGFiZWwiPjxwPit2b2lkIGluc2VydENvaW4oKTwvcD48L3NwYW4+PC9kaXY+PC9mb3JlaWduT2JqZWN0PjwvZz48ZyB0cmFuc2Zvcm09InRyYW5zbGF0ZSgwLDM2KSIgc3R5bGU9IiIgY2xhc3M9ImxhYmVsIj48Zm9yZWlnbk9iamVjdCBoZWlnaHQ9IjI0IiB3aWR0aD0iMTQ1LjIxMjUwOTE1NTI3MzQ0Ij48ZGl2IHN0eWxlPSJkaXNwbGF5OiB0YWJsZS1jZWxsOyB3aGl0ZS1zcGFjZTogbm93cmFwOyBsaW5lLWhlaWdodDogMS41OyBtYXgtd2lkdGg6IDE5OHB4OyB0ZXh0LWFsaWduOiBjZW50ZXI7IiB4bWxucz0iaHR0cDovL3d3dy53My5vcmcvMTk5OS94aHRtbCI+PHNwYW4gc3R5bGU9IiIgY2xhc3M9Im5vZGVMYWJlbCBtYXJrZG93bi1ub2RlLWxhYmVsIj48cD4rdm9pZCBzZWxlY3RDb2ZmZWUoKTwvcD48L3NwYW4+PC9kaXY+PC9mb3JlaWduT2JqZWN0PjwvZz48ZyB0cmFuc2Zvcm09InRyYW5zbGF0ZSgwLDYwKSIgc3R5bGU9IiIgY2xhc3M9ImxhYmVsIj48Zm9yZWlnbk9iamVjdCBoZWlnaHQ9IjI0IiB3aWR0aD0iMTYzLjgzNzUwOTE1NTI3MzQ0Ij48ZGl2IHN0eWxlPSJkaXNwbGF5OiB0YWJsZS1jZWxsOyB3aGl0ZS1zcGFjZTogbm93cmFwOyBsaW5lLWhlaWdodDogMS41OyBtYXgtd2lkdGg6IDIyMHB4OyB0ZXh0LWFsaWduOiBjZW50ZXI7IiB4bWxucz0iaHR0cDovL3d3dy53My5vcmcvMTk5OS94aHRtbCI+PHNwYW4gc3R5bGU9IiIgY2xhc3M9Im5vZGVMYWJlbCBtYXJrZG93bi1ub2RlLWxhYmVsIj48cD4rdm9pZCBkaXNwZW5zZUNvZmZlZSgpPC9wPjwvc3Bhbj48L2Rpdj48L2ZvcmVpZ25PYmplY3Q+PC9nPjwvZz48ZyBzdHlsZT0iIiBjbGFzcz0iZGl2aWRlciI+PHBhdGggc3R5bGU9IiIgZmlsbD0ibm9uZSIgc3Ryb2tlLXdpZHRoPSIxLjMiIHN0cm9rZT0iIzk5OSIgZD0iTS0yMTUuMjQwNjMxMTAzNTE1NjIgLTYwIEMtMTI4LjM3MTQ1MDA5MTYyNjUgLTYwLCAtNDEuNTAyMjY5MDc5NzM3NDMgLTYwLCAyMTUuMjQwNjMxMTAzNTE1NjIgLTYwIE0tMjE1LjI0MDYzMTEwMzUxNTYyIC02MCBDLTc3LjMzMDczMjE0MjgwMDY2IC02MCwgNjAuNTc5MTY2ODE3OTE0MzEgLTYwLCAyMTUuMjQwNjMxMTAzNTE1NjIgLTYwIj48L3BhdGg+PC9nPjxnIHN0eWxlPSIiIGNsYXNzPSJkaXZpZGVyIj48cGF0aCBzdHlsZT0iIiBmaWxsPSJub25lIiBzdHJva2Utd2lkdGg9IjEuMyIgc3Ryb2tlPSIjOTk5IiBkPSJNLTIxNS4yNDA2MzExMDM1MTU2MiAtMTIgQy03Mi43ODY3NjU1Mzk1NzQ0MiAtMTIsIDY5LjY2NzEwMDAyNDM2Njc5IC0xMiwgMjE1LjI0MDYzMTEwMzUxNTYyIC0xMiBNLTIxNS4yNDA2MzExMDM1MTU2MiAtMTIgQy05Ni42NDkyNjI2NDA0MzgzIC0xMiwgMjEuOTQyMTA1ODIyNjM5MDM2IC0xMiwgMjE1LjI0MDYzMTEwMzUxNTYyIC0xMiI+PC9wYXRoPjwvZz48L2c+PGcgdHJhbnNmb3JtPSJ0cmFuc2xhdGUoMzU0LjgwMzg5NTk1MDMxNzQsIDc3Ni4zOTk5OTk2MTg1MzAzKSIgaWQ9ImNsYXNzSWQtQ29mZmVlTWFjaGluZS05IiBjbGFzcz0ibm9kZSBkZWZhdWx0Ij48ZyBjbGFzcz0iYmFzaWMgbGFiZWwtY29udGFpbmVyIj48cGF0aCBzdHlsZT0iIiBmaWxsPSIjZWVlIiBzdHJva2Utd2lkdGg9IjAiIHN0cm9rZT0ibm9uZSIgZD0iTS0xOTEuNjY4NzQ2OTQ4MjQyMiAtMTkyIEwxOTEuNjY4NzQ2OTQ4MjQyMiAtMTkyIEwxOTEuNjY4NzQ2OTQ4MjQyMiAxOTIgTC0xOTEuNjY4NzQ2OTQ4MjQyMiAxOTIiPjwvcGF0aD48cGF0aCBzdHlsZT0iIiBmaWxsPSJub25lIiBzdHJva2Utd2lkdGg9IjEuMyIgc3Ryb2tlPSIjOTk5IiBkPSJNLTE5MS42Njg3NDY5NDgyNDIyIC0xOTIgQy0xMDAuMjQ5MTU4MTk2NDUyMTQgLTE5MiwgLTguODI5NTY5NDQ0NjYyMDk4IC0xOTIsIDE5MS42Njg3NDY5NDgyNDIyIC0xOTIgTS0xOTEuNjY4NzQ2OTQ4MjQyMiAtMTkyIEMtODUuODg0NTk4MTA3MzgxNTYgLTE5MiwgMTkuODk5NTUwNzMzNDc5MDYgLTE5MiwgMTkxLjY2ODc0Njk0ODI0MjIgLTE5MiBNMTkxLjY2ODc0Njk0ODI0MjIgLTE5MiBDMTkxLjY2ODc0Njk0ODI0MjIgLTQxLjI4MzU2NTc1MDkwMDQxLCAxOTEuNjY4NzQ2OTQ4MjQyMiAxMDkuNDMyODY4NDk4MTk5MTgsIDE5MS42Njg3NDY5NDgyNDIyIDE5MiBNMTkxLjY2ODc0Njk0ODI0MjIgLTE5MiBDMTkxLjY2ODc0Njk0ODI0MjIgLTU2LjM3MTk0NzY4NTU3NzAzLCAxOTEuNjY4NzQ2OTQ4MjQyMiA3OS4yNTYxMDQ2Mjg4NDU5NSwgMTkxLjY2ODc0Njk0ODI0MjIgMTkyIE0xOTEuNjY4NzQ2OTQ4MjQyMiAxOTIgQzU5Ljg5MTA5MzI0NzMzMzM0NSAxOTIsIC03MS44ODY1NjA0NTM1NzU1IDE5MiwgLTE5MS42Njg3NDY5NDgyNDIyIDE5MiBNMTkxLjY2ODc0Njk0ODI0MjIgMTkyIEM3My4xOTUyNDQ5MDQ2NjM4MiAxOTIsIC00NS4yNzgyNTcxMzg5MTQ1NCAxOTIsIC0xOTEuNjY4NzQ2OTQ4MjQyMiAxOTIgTS0xOTEuNjY4NzQ2OTQ4MjQyMiAxOTIgQy0xOTEuNjY4NzQ2OTQ4MjQyMiA2MS42NzQ4MzU0NzY4MTI2NiwgLTE5MS42Njg3NDY5NDgyNDIyIC02OC42NTAzMjkwNDYzNzQ2OCwgLTE5MS42Njg3NDY5NDgyNDIyIC0xOTIgTS0xOTEuNjY4NzQ2OTQ4MjQyMiAxOTIgQy0xOTEuNjY4NzQ2OTQ4MjQyMiAxMTEuMTc1MTU1OTQ4NDQ0NSwgLTE5MS42Njg3NDY5NDgyNDIyIDMwLjM1MDMxMTg5Njg4ODk5NiwgLTE5MS42Njg3NDY5NDgyNDIyIC0xOTIiPjwvcGF0aD48L2c+PGcgdHJhbnNmb3JtPSJ0cmFuc2xhdGUoMCwgLTE2OCkiIGNsYXNzPSJhbm5vdGF0aW9uLWdyb3VwIHRleHQiPjwvZz48ZyB0cmFuc2Zvcm09InRyYW5zbGF0ZSgtNTUuMjk5OTk5MjM3MDYwNTUsIC0xNjgpIiBjbGFzcz0ibGFiZWwtZ3JvdXAgdGV4dCI+PGcgdHJhbnNmb3JtPSJ0cmFuc2xhdGUoMCwtMTIpIiBzdHlsZT0iZm9udC13ZWlnaHQ6IGJvbGRlciIgY2xhc3M9ImxhYmVsIj48Zm9yZWlnbk9iamVjdCBoZWlnaHQ9IjI0IiB3aWR0aD0iMTEwLjU5OTk5ODQ3NDEyMTEiPjxkaXYgc3R5bGU9ImRpc3BsYXk6IHRhYmxlLWNlbGw7IHdoaXRlLXNwYWNlOiBub3dyYXA7IGxpbmUtaGVpZ2h0OiAxLjU7IG1heC13aWR0aDogMTU2cHg7IHRleHQtYWxpZ246IGNlbnRlcjsiIHhtbG5zPSJodHRwOi8vd3d3LnczLm9yZy8xOTk5L3hodG1sIj48c3BhbiBzdHlsZT0iIiBjbGFzcz0ibm9kZUxhYmVsIG1hcmtkb3duLW5vZGUtbGFiZWwiPjxwPkNvZmZlZU1hY2hpbmU8L3A+PC9zcGFuPjwvZGl2PjwvZm9yZWlnbk9iamVjdD48L2c+PC9nPjxnIHRyYW5zZm9ybT0idHJhbnNsYXRlKC0xNzkuNjY4NzQ2OTQ4MjQyMiwgLTEyMCkiIGNsYXNzPSJtZW1iZXJzLWdyb3VwIHRleHQiPjxnIHRyYW5zZm9ybT0idHJhbnNsYXRlKDAsLTEyKSIgc3R5bGU9IiIgY2xhc3M9ImxhYmVsIj48Zm9yZWlnbk9iamVjdCBoZWlnaHQ9IjI0IiB3aWR0aD0iMjE4LjU1MDAwMzA1MTc1NzgiPjxkaXYgc3R5bGU9ImRpc3BsYXk6IHRhYmxlLWNlbGw7IHdoaXRlLXNwYWNlOiBub3dyYXA7IGxpbmUtaGVpZ2h0OiAxLjU7IG1heC13aWR0aDogMjcwcHg7IHRleHQtYWxpZ246IGNlbnRlcjsiIHhtbG5zPSJodHRwOi8vd3d3LnczLm9yZy8xOTk5L3hodG1sIj48c3BhbiBzdHlsZT0iIiBjbGFzcz0ibm9kZUxhYmVsIG1hcmtkb3duLW5vZGUtbGFiZWwiPjxwPi1Db2ZmZWVNYWNoaW5lU3RhdGUgaWRsZVN0YXRlPC9wPjwvc3Bhbj48L2Rpdj48L2ZvcmVpZ25PYmplY3Q+PC9nPjxnIHRyYW5zZm9ybT0idHJhbnNsYXRlKDAsMTIpIiBzdHlsZT0iIiBjbGFzcz0ibGFiZWwiPjxmb3JlaWduT2JqZWN0IGhlaWdodD0iMjQiIHdpZHRoPSIyNTUuODc1Ij48ZGl2IHN0eWxlPSJkaXNwbGF5OiB0YWJsZS1jZWxsOyB3aGl0ZS1zcGFjZTogbm93cmFwOyBsaW5lLWhlaWdodDogMS41OyBtYXgtd2lkdGg6IDMwN3B4OyB0ZXh0LWFsaWduOiBjZW50ZXI7IiB4bWxucz0iaHR0cDovL3d3dy53My5vcmcvMTk5OS94aHRtbCI+PHNwYW4gc3R5bGU9IiIgY2xhc3M9Im5vZGVMYWJlbCBtYXJrZG93bi1ub2RlLWxhYmVsIj48cD4tQ29mZmVlTWFjaGluZVN0YXRlIHNlbGVjdGluZ1N0YXRlPC9wPjwvc3Bhbj48L2Rpdj48L2ZvcmVpZ25PYmplY3Q+PC9nPjxnIHRyYW5zZm9ybT0idHJhbnNsYXRlKDAsMzYpIiBzdHlsZT0iIiBjbGFzcz0ibGFiZWwiPjxmb3JlaWduT2JqZWN0IGhlaWdodD0iMjQiIHdpZHRoPSIyNjUuNzc0OTkzODk2NDg0NCI+PGRpdiBzdHlsZT0iZGlzcGxheTogdGFibGUtY2VsbDsgd2hpdGUtc3BhY2U6IG5vd3JhcDsgbGluZS1oZWlnaHQ6IDEuNTsgbWF4LXdpZHRoOiAzMjFweDsgdGV4dC1hbGlnbjogY2VudGVyOyIgeG1sbnM9Imh0dHA6Ly93d3cudzMub3JnLzE5OTkveGh0bWwiPjxzcGFuIHN0eWxlPSIiIGNsYXNzPSJub2RlTGFiZWwgbWFya2Rvd24tbm9kZS1sYWJlbCI+PHA+LUNvZmZlZU1hY2hpbmVTdGF0ZSBkaXNwZW5zaW5nU3RhdGU8L3A+PC9zcGFuPjwvZGl2PjwvZm9yZWlnbk9iamVjdD48L2c+PGcgdHJhbnNmb3JtPSJ0cmFuc2xhdGUoMCw2MCkiIHN0eWxlPSIiIGNsYXNzPSJsYWJlbCI+PGZvcmVpZ25PYmplY3QgaGVpZ2h0PSIyNCIgd2lkdGg9IjI0NC41Mzc1MDYxMDM1MTU2MiI+PGRpdiBzdHlsZT0iZGlzcGxheTogdGFibGUtY2VsbDsgd2hpdGUtc3BhY2U6IG5vd3JhcDsgbGluZS1oZWlnaHQ6IDEuNTsgbWF4LXdpZHRoOiAyOTVweDsgdGV4dC1hbGlnbjogY2VudGVyOyIgeG1sbnM9Imh0dHA6Ly93d3cudzMub3JnLzE5OTkveGh0bWwiPjxzcGFuIHN0eWxlPSIiIGNsYXNzPSJub2RlTGFiZWwgbWFya2Rvd24tbm9kZS1sYWJlbCI+PHA+LUNvZmZlZU1hY2hpbmVTdGF0ZSBjdXJyZW50U3RhdGU8L3A+PC9zcGFuPjwvZGl2PjwvZm9yZWlnbk9iamVjdD48L2c+PC9nPjxnIHRyYW5zZm9ybT0idHJhbnNsYXRlKC0xNzkuNjY4NzQ2OTQ4MjQyMiwgMCkiIGNsYXNzPSJtZXRob2RzLWdyb3VwIHRleHQiPjxnIHRyYW5zZm9ybT0idHJhbnNsYXRlKDAsLTEyKSIgc3R5bGU9IiIgY2xhc3M9ImxhYmVsIj48Zm9yZWlnbk9iamVjdCBoZWlnaHQ9IjI0IiB3aWR0aD0iMTI2LjAzNzQ5ODQ3NDEyMTEiPjxkaXYgc3R5bGU9ImRpc3BsYXk6IHRhYmxlLWNlbGw7IHdoaXRlLXNwYWNlOiBub3dyYXA7IGxpbmUtaGVpZ2h0OiAxLjU7IG1heC13aWR0aDogMTg0cHg7IHRleHQtYWxpZ246IGNlbnRlcjsiIHhtbG5zPSJodHRwOi8vd3d3LnczLm9yZy8xOTk5L3hodG1sIj48c3BhbiBzdHlsZT0iIiBjbGFzcz0ibm9kZUxhYmVsIG1hcmtkb3duLW5vZGUtbGFiZWwiPjxwPitDb2ZmZWVNYWNoaW5lKCk8L3A+PC9zcGFuPjwvZGl2PjwvZm9yZWlnbk9iamVjdD48L2c+PGcgdHJhbnNmb3JtPSJ0cmFuc2xhdGUoMCwxMikiIHN0eWxlPSIiIGNsYXNzPSJsYWJlbCI+PGZvcmVpZ25PYmplY3QgaGVpZ2h0PSIyNCIgd2lkdGg9IjI5OC40NTAwMTIyMDcwMzEyNSI+PGRpdiBzdHlsZT0iZGlzcGxheTogdGFibGUtY2VsbDsgd2hpdGUtc3BhY2U6IG5vd3JhcDsgbGluZS1oZWlnaHQ6IDEuNTsgbWF4LXdpZHRoOiAzNDhweDsgdGV4dC1hbGlnbjogY2VudGVyOyIgeG1sbnM9Imh0dHA6Ly93d3cudzMub3JnLzE5OTkveGh0bWwiPjxzcGFuIHN0eWxlPSIiIGNsYXNzPSJub2RlTGFiZWwgbWFya2Rvd24tbm9kZS1sYWJlbCI+PHA+K3ZvaWQgc2V0U3RhdGUoQ29mZmVlTWFjaGluZVN0YXRlIHN0YXRlKTwvcD48L3NwYW4+PC9kaXY+PC9mb3JlaWduT2JqZWN0PjwvZz48ZyB0cmFuc2Zvcm09InRyYW5zbGF0ZSgwLDM2KSIgc3R5bGU9IiIgY2xhc3M9ImxhYmVsIj48Zm9yZWlnbk9iamVjdCBoZWlnaHQ9IjI0IiB3aWR0aD0iMjU1LjgwMDAwMzA1MTc1NzgiPjxkaXYgc3R5bGU9ImRpc3BsYXk6IHRhYmxlLWNlbGw7IHdoaXRlLXNwYWNlOiBub3dyYXA7IGxpbmUtaGVpZ2h0OiAxLjU7IG1heC13aWR0aDogMzA4cHg7IHRleHQtYWxpZ246IGNlbnRlcjsiIHhtbG5zPSJodHRwOi8vd3d3LnczLm9yZy8xOTk5L3hodG1sIj48c3BhbiBzdHlsZT0iIiBjbGFzcz0ibm9kZUxhYmVsIG1hcmtkb3duLW5vZGUtbGFiZWwiPjxwPitDb2ZmZWVNYWNoaW5lU3RhdGUgZ2V0SWRsZVN0YXRlKCk8L3A+PC9zcGFuPjwvZGl2PjwvZm9yZWlnbk9iamVjdD48L2c+PGcgdHJhbnNmb3JtPSJ0cmFuc2xhdGUoMCw2MCkiIHN0eWxlPSIiIGNsYXNzPSJsYWJlbCI+PGZvcmVpZ25PYmplY3QgaGVpZ2h0PSIyNCIgd2lkdGg9IjI3MS41ODc0OTM4OTY0ODQ0Ij48ZGl2IHN0eWxlPSJkaXNwbGF5OiB0YWJsZS1jZWxsOyB3aGl0ZS1zcGFjZTogbm93cmFwOyBsaW5lLWhlaWdodDogMS41OyBtYXgtd2lkdGg6IDMyNXB4OyB0ZXh0LWFsaWduOiBjZW50ZXI7IiB4bWxucz0iaHR0cDovL3d3dy53My5vcmcvMTk5OS94aHRtbCI+PHNwYW4gc3R5bGU9IiIgY2xhc3M9Im5vZGVMYWJlbCBtYXJrZG93bi1ub2RlLWxhYmVsIj48cD4rQ29mZmVlTWFjaGluZVN0YXRlIGdldFJlYWR5U3RhdGUoKTwvcD48L3NwYW4+PC9kaXY+PC9mb3JlaWduT2JqZWN0PjwvZz48ZyB0cmFuc2Zvcm09InRyYW5zbGF0ZSgwLDg0KSIgc3R5bGU9IiIgY2xhc3M9ImxhYmVsIj48Zm9yZWlnbk9iamVjdCBoZWlnaHQ9IjI0IiB3aWR0aD0iMzA0LjAzNzUwNjEwMzUxNTYiPjxkaXYgc3R5bGU9ImRpc3BsYXk6IHRhYmxlLWNlbGw7IHdoaXRlLXNwYWNlOiBub3dyYXA7IGxpbmUtaGVpZ2h0OiAxLjU7IG1heC13aWR0aDogMzYwcHg7IHRleHQtYWxpZ246IGNlbnRlcjsiIHhtbG5zPSJodHRwOi8vd3d3LnczLm9yZy8xOTk5L3hodG1sIj48c3BhbiBzdHlsZT0iIiBjbGFzcz0ibm9kZUxhYmVsIG1hcmtkb3duLW5vZGUtbGFiZWwiPjxwPitDb2ZmZWVNYWNoaW5lU3RhdGUgZ2V0RGlzcGVuc2luZ1N0YXRlKCk8L3A+PC9zcGFuPjwvZGl2PjwvZm9yZWlnbk9iamVjdD48L2c+PGcgdHJhbnNmb3JtPSJ0cmFuc2xhdGUoMCwxMDgpIiBzdHlsZT0iIiBjbGFzcz0ibGFiZWwiPjxmb3JlaWduT2JqZWN0IGhlaWdodD0iMjQiIHdpZHRoPSIxMjcuNDAwMDAxNTI1ODc4OSI+PGRpdiBzdHlsZT0iZGlzcGxheTogdGFibGUtY2VsbDsgd2hpdGUtc3BhY2U6IG5vd3JhcDsgbGluZS1oZWlnaHQ6IDEuNTsgbWF4LXdpZHRoOiAxODNweDsgdGV4dC1hbGlnbjogY2VudGVyOyIgeG1sbnM9Imh0dHA6Ly93d3cudzMub3JnLzE5OTkveGh0bWwiPjxzcGFuIHN0eWxlPSIiIGNsYXNzPSJub2RlTGFiZWwgbWFya2Rvd24tbm9kZS1sYWJlbCI+PHA+K3ZvaWQgaW5zZXJ0Q29pbigpPC9wPjwvc3Bhbj48L2Rpdj48L2ZvcmVpZ25PYmplY3Q+PC9nPjxnIHRyYW5zZm9ybT0idHJhbnNsYXRlKDAsMTMyKSIgc3R5bGU9IiIgY2xhc3M9ImxhYmVsIj48Zm9yZWlnbk9iamVjdCBoZWlnaHQ9IjI0IiB3aWR0aD0iMTQ1LjIxMjUwOTE1NTI3MzQ0Ij48ZGl2IHN0eWxlPSJkaXNwbGF5OiB0YWJsZS1jZWxsOyB3aGl0ZS1zcGFjZTogbm93cmFwOyBsaW5lLWhlaWdodDogMS41OyBtYXgtd2lkdGg6IDE5OHB4OyB0ZXh0LWFsaWduOiBjZW50ZXI7IiB4bWxucz0iaHR0cDovL3d3dy53My5vcmcvMTk5OS94aHRtbCI+PHNwYW4gc3R5bGU9IiIgY2xhc3M9Im5vZGVMYWJlbCBtYXJrZG93bi1ub2RlLWxhYmVsIj48cD4rdm9pZCBzZWxlY3RDb2ZmZWUoKTwvcD48L3NwYW4+PC9kaXY+PC9mb3JlaWduT2JqZWN0PjwvZz48ZyB0cmFuc2Zvcm09InRyYW5zbGF0ZSgwLDE1NikiIHN0eWxlPSIiIGNsYXNzPSJsYWJlbCI+PGZvcmVpZ25PYmplY3QgaGVpZ2h0PSIyNCIgd2lkdGg9IjE2My44Mzc1MDkxNTUyNzM0NCI+PGRpdiBzdHlsZT0iZGlzcGxheTogdGFibGUtY2VsbDsgd2hpdGUtc3BhY2U6IG5vd3JhcDsgbGluZS1oZWlnaHQ6IDEuNTsgbWF4LXdpZHRoOiAyMjBweDsgdGV4dC1hbGlnbjogY2VudGVyOyIgeG1sbnM9Imh0dHA6Ly93d3cudzMub3JnLzE5OTkveGh0bWwiPjxzcGFuIHN0eWxlPSIiIGNsYXNzPSJub2RlTGFiZWwgbWFya2Rvd24tbm9kZS1sYWJlbCI+PHA+K3ZvaWQgZGlzcGVuc2VDb2ZmZWUoKTwvcD48L3NwYW4+PC9kaXY+PC9mb3JlaWduT2JqZWN0PjwvZz48L2c+PGcgc3R5bGU9IiIgY2xhc3M9ImRpdmlkZXIiPjxwYXRoIHN0eWxlPSIiIGZpbGw9Im5vbmUiIHN0cm9rZS13aWR0aD0iMS4zIiBzdHJva2U9IiM5OTkiIGQ9Ik0tMTkxLjY2ODc0Njk0ODI0MjIgLTE0NCBDLTc3LjQ2MjA5NTY5NzMxOTM0IC0xNDQsIDM2Ljc0NDU1NTU1MzYwMzUwNCAtMTQ0LCAxOTEuNjY4NzQ2OTQ4MjQyMiAtMTQ0IE0tMTkxLjY2ODc0Njk0ODI0MjIgLTE0NCBDLTc0LjEwOTkwNTQ0MTA0MTExIC0xNDQsIDQzLjQ0ODkzNjA2NjE1OTk3IC0xNDQsIDE5MS42Njg3NDY5NDgyNDIyIC0xNDQiPjwvcGF0aD48L2c+PGcgc3R5bGU9IiIgY2xhc3M9ImRpdmlkZXIiPjxwYXRoIHN0eWxlPSIiIGZpbGw9Im5vbmUiIHN0cm9rZS13aWR0aD0iMS4zIiBzdHJva2U9IiM5OTkiIGQ9Ik0tMTkxLjY2ODc0Njk0ODI0MjIgLTI0IEMtNjIuNjIyMDk4ODg2ODI1MTE0IC0yNCwgNjYuNDI0NTQ5MTc0NTkxOTYgLTI0LCAxOTEuNjY4NzQ2OTQ4MjQyMiAtMjQgTS0xOTEuNjY4NzQ2OTQ4MjQyMiAtMjQgQy00Ny40Mjg3Mzk0OTkyMjE5MyAtMjQsIDk2LjgxMTI2Nzk0OTc5ODMyIC0yNCwgMTkxLjY2ODc0Njk0ODI0MjIgLTI0Ij48L3BhdGg+PC9nPjwvZz48L2c+PC9nPjwvZz48L3N2Zz4=;shadow=1;" vertex="1" parent="1">
                        <mxGeometry x="-70" y="-310" width="915.4110107421875" height="1282.4000244140625" as="geometry"/>
                    </mxCell>
                </UserObject>
            </root>
        </mxGraphModel>
    </diagram>
</mxfile>